<svg xmlns="http://www.w3.org/2000/svg" width="350" height="350"><style>.p #bg{fill:#ddd} .c #bg{fill:#222} .p .factor,.p #text{fill:#222} .c .factor,.c #text{fill:#ddd} .sexy{fill:#e44C21} .cousin{fill:#348C47} .twin {fill:#3C4CE1} #grid .factor{r: 8} .c #icons *{fill: #ddd} .p #icons * {fill:#222} #icons .stroke *{fill:none} #icons .stroke {fill:none;stroke:#222;stroke-width:8} .c #icons .stroke{stroke:#ddd} .square{stroke-width:2;fill:none;stroke:#222;r:8} .c .square{stroke:#ddd} #icons #i-4 circle{stroke-width:20}</style><g class="c"><rect id="bg" width="100%" height="100%" /><g id="grid" transform="translate(26,26)"><g opacity=".2"><circle r="8" cx="138" cy="69" class="square"><animate attributeName="opacity" values="1;.3;1" dur="0.816320s" repeatCount="indefinite"/></circle><circle r="8" cx="207" cy="92" class="square"><animate attributeName="opacity" values="1;.3;1" dur="0.606040s" repeatCount="indefinite"/></circle><circle r="8" cx="276" cy="115" class="square"><animate attributeName="opacity" values="1;.3;1" dur="0.481920s" repeatCount="indefinite"/></circle></g><circle r="8" cx="23" cy="0" class="factor"><animate attributeName="opacity" values="1;.3;1" dur="20.000000s" repeatCount="indefinite"/></circle><circle r="8" cx="23" cy="23" class="factor"><animate attributeName="opacity" values="1;.3;1" dur="2.500000s" repeatCount="indefinite"/></circle><circle r="8" cx="23" cy="46" class="factor"><animate attributeName="opacity" values="1;.3;1" dur="1.333320s" repeatCount="indefinite"/></circle></g><g id="text" transform="translate(18,318)"><g transform="translate(0,0)"><path d="M4.5 14a6 6 0 0 1-1.8-.3L1.2 13l-.9-1.2c-.2-.4-.3-1-.3-1.5v-.2A3.3 3.3 0 0 1 .8 8a3.3 3.3 0 0 1 1.7-1v-.3a3 3 0 0 1-.8-.4c-.3-.1-.5-.4-.7-.6a3 3 0 0 1-.6-1.9v-.2A3.2 3.2 0 0 1 1.4 1a5.4 5.4 0 0 1 3.1-1h.1C5.4 0 6 0 6.5.3c.5.1 1 .4 1.3.7A3.1 3.1 0 0 1 9 3.5v.2c0 .4 0 .7-.2 1 0 .4-.2.7-.5.9a3 3 0 0 1-.6.6 3 3 0 0 1-.9.4V7a3.7 3.7 0 0 1 1.8 1 3.3 3.3 0 0 1 .7 2.2v.2A3.3 3.3 0 0 1 8.1 13l-1.4.7a6 6 0 0 1-1.9.3h-.3Zm.3-1.5c.9 0 1.6-.2 2.1-.6.6-.5.8-1 .8-1.8V10c0-.8-.3-1.4-.8-1.8-.6-.5-1.3-.7-2.2-.7-1 0-1.7.2-2.3.7-.5.4-.8 1-.8 1.8v.1c0 .7.3 1.3.8 1.8.6.4 1.3.6 2.2.6h.2ZM4.7 6a3 3 0 0 0 2-.6c.4-.5.7-1 .7-1.6v-.1A2 2 0 0 0 6.6 2a3 3 0 0 0-2-.6 3 3 0 0 0-2 .6A2 2 0 0 0 2 3.7c0 .7.2 1.2.7 1.7a3 3 0 0 0 2 .6Z" /></g></g><g id="icons" transform="translate(317,317)"><g id="i-24" transform="scale(.266) translate(-0,0)"><circle class="stroke" cx="30" cy="30" r="26"/></g><g id="i-22" transform="scale(.266) translate(-86,0)"><path d="M16 8A8 8 0 1 1 0 8a8 8 0 0 1 16 0Z"/><path d="M3.2 57.8a4 4 0 0 1 0-5.6l49-49a4 4 0 0 1 5.6 5.6l-49 49a4 4 0 0 1-5.6 0Z"/><path d="M52 60a8 8 0 1 0 0-16 8 8 0 0 0 0 16Z"/></g><g id="i-16" transform="scale(.266) translate(-172,0)"><path d="M28.1 2.9a2 2 0 0 1 3.8 0l5.5 16.9a2 2 0 0 0 2 1.4H57a2 2 0 0 1 1.2 3.6L44 35.3a2 2 0 0 0-.7 2.2l5.5 17a2 2 0 0 1-3.1 2.2L31.2 46.2a2 2 0 0 0-2.4 0L14.4 56.7a2 2 0 0 1-3-2.2l5.4-17a2 2 0 0 0-.7-2.2L1.7 24.8a2 2 0 0 1 1.2-3.6h17.8a2 2 0 0 0 1.9-1.4l5.5-17Z"/></g><g id="i-8" transform="scale(.266) translate(-258,0)"><g class="stroke"><path d="M44 20.8h13.8V7"/><path d="M12 11a25.4 25.4 0 0 1 36 0l9.8 9.8"/><path d="M16 37.2H2.3V51"/><path d="M48 47a25.4 25.4 0 0 1-36 0l-9.8-9.8"/></g></g><g id="i-7" transform="scale(.266) translate(-344,0)"><path class="stroke" d="M31.3 23a.6.6 0 0 0 0-.4.6.6 0 0 0-.5-.2h-.3a.8.8 0 0 0-.5.3l-.1.4v.3a1 1 0 0 0 .5.7 1.2 1.2 0 0 0 .9.2l.5-.2.4-.5.2-.5a1.7 1.7 0 0 0-.3-1.3 2 2 0 0 0-1.3-.8h-.9l-.8.4c-.3.1-.5.4-.7.7-.2.3-.3.6-.3 1a3 3 0 0 0 .5 2.2 3.3 3.3 0 0 0 2.2 1.4h1.5a4 4 0 0 0 1.4-.7c.5-.3.9-.7 1.2-1.2a5.1 5.1 0 0 0-.2-5.6 5.8 5.8 0 0 0-3.9-2.4c-.8-.2-1.7-.2-2.6 0a7 7 0 0 0-2.5 1.2 8 8 0 0 0-2 2.1c-.5.9-.9 1.9-1 3a8.8 8.8 0 0 0 1.5 6.7 10 10 0 0 0 6.6 4.1c1.4.3 3 .3 4.4 0a13 13 0 0 0 7.8-5.6c1-1.6 1.6-3.4 2-5.2a15.2 15.2 0 0 0-2.7-11.6 17.2 17.2 0 0 0-11.5-7.2c-2.4-.4-5-.4-7.6.2-2.6.6-5.2 1.7-7.5 3.3a22.6 22.6 0 0 0-6 6.4 24.5 24.5 0 0 0-3.3 8.9A26.3 26.3 0 0 0 11 43a29.7 29.7 0 0 0 19.8 12.4A33.5 33.5 0 0 0 54.2 51"/></g></g></g></svg>