<svg xmlns="http://www.w3.org/2000/svg" width="350" height="350"><style>.p #bg{fill:#ddd} .c #bg{fill:#222} .p .factor,.p #text{fill:#222} .c .factor,.c #text{fill:#ddd} .sexy{fill:#e44C21} .cousin{fill:#348C47} .twin {fill:#3C4CE1} #grid .factor{r: 8} .c #icons *{fill: #ddd} .p #icons * {fill:#222} #icons .stroke *{fill:none} #icons .stroke {fill:none;stroke:#222;stroke-width:8} .c #icons .stroke{stroke:#ddd} .square{stroke-width:2;fill:none;stroke:#222;r:8} .c .square{stroke:#ddd} #icons #i-4 circle{stroke-width:20}</style><g class="c"><rect id="bg" width="100%" height="100%" /><g id="grid" transform="translate(26,26)"><g opacity=".2"><circle r="8" cx="46" cy="46" class="square"><animate attributeName="opacity" values="1;.3;1" dur="1.290320s" repeatCount="indefinite"/></circle><circle r="8" cx="115" cy="46" class="square"><animate attributeName="opacity" values="1;.3;1" dur="1.176440s" repeatCount="indefinite"/></circle><circle r="8" cx="69" cy="69" class="square"><animate attributeName="opacity" values="1;.3;1" dur="0.869560s" repeatCount="indefinite"/></circle><circle r="8" cx="92" cy="69" class="square"><animate attributeName="opacity" values="1;.3;1" dur="0.851040s" repeatCount="indefinite"/></circle><circle r="8" cx="138" cy="69" class="square"><animate attributeName="opacity" values="1;.3;1" dur="0.816320s" repeatCount="indefinite"/></circle><circle r="8" cx="161" cy="69" class="square"><animate attributeName="opacity" values="1;.3;1" dur="0.800000s" repeatCount="indefinite"/></circle><circle r="8" cx="92" cy="92" class="square"><animate attributeName="opacity" values="1;.3;1" dur="0.655720s" repeatCount="indefinite"/></circle><circle r="8" cx="184" cy="92" class="square"><animate attributeName="opacity" values="1;.3;1" dur="0.615360s" repeatCount="indefinite"/></circle><circle r="8" cx="230" cy="92" class="square"><animate attributeName="opacity" values="1;.3;1" dur="0.597000s" repeatCount="indefinite"/></circle><circle r="8" cx="115" cy="115" class="square"><animate attributeName="opacity" values="1;.3;1" dur="0.526280s" repeatCount="indefinite"/></circle><circle r="8" cx="138" cy="115" class="square"><animate attributeName="opacity" values="1;.3;1" dur="0.519480s" repeatCount="indefinite"/></circle><circle r="8" cx="207" cy="115" class="square"><animate attributeName="opacity" values="1;.3;1" dur="0.500000s" repeatCount="indefinite"/></circle><circle r="8" cx="230" cy="115" class="square"><animate attributeName="opacity" values="1;.3;1" dur="0.493800s" repeatCount="indefinite"/></circle><circle r="8" cx="253" cy="115" class="square"><animate attributeName="opacity" values="1;.3;1" dur="0.487800s" repeatCount="indefinite"/></circle><circle r="8" cx="276" cy="115" class="square"><animate attributeName="opacity" values="1;.3;1" dur="0.481920s" repeatCount="indefinite"/></circle></g><circle r="8" cx="23" cy="0" class="factor"><animate attributeName="opacity" values="1;.3;1" dur="20.000000s" repeatCount="indefinite"/></circle><circle r="8" cx="0" cy="23" class="factor"><animate attributeName="opacity" values="1;.3;1" dur="2.666640s" repeatCount="indefinite"/></circle><circle r="8" cx="23" cy="23" class="factor"><animate attributeName="opacity" values="1;.3;1" dur="2.500000s" repeatCount="indefinite"/></circle></g><g id="text" transform="translate(18,318)"><g transform="translate(0,0)"><path d="M7.5 4.2c0-.8-.3-1.5-.8-2s-1.2-.8-2.1-.8l-1.2.3c-.4.1-.7.3-1 .6a3.2 3.2 0 0 0-.8 2.4v2h.2c.4-.6.8-1 1.4-1.4.5-.3 1.2-.5 1.9-.5.6 0 1.2.1 1.7.4.5.1 1 .4 1.3.8l1 1.4.2 1.9v.2A4.5 4.5 0 0 1 8 12.8c-.4.3-.9.7-1.5.9a5.2 5.2 0 0 1-3.7 0c-.6-.2-1-.5-1.5-1-.4-.3-.7-.8-1-1.3L0 9.6v-5c0-.7.1-1.3.4-1.9.2-.5.5-1 1-1.4.4-.4.9-.8 1.4-1a5.4 5.4 0 0 1 3.6 0 4 4 0 0 1 2.7 3.9H7.5Zm-2.8 8.4c.4 0 .9 0 1.2-.2l1-.7c.3-.2.5-.6.6-1 .2-.3.2-.7.2-1.2v-.2c0-.4 0-.9-.2-1.2a2.7 2.7 0 0 0-1.6-1.6c-.4-.2-.8-.2-1.2-.2a3.1 3.1 0 0 0-2.2.8 3 3 0 0 0-.9 2.1v.4c0 .4 0 .8.2 1.2a2.7 2.7 0 0 0 1.6 1.6l1.3.2Z" /></g></g><g id="icons" transform="translate(317,317)"><g id="i-24" transform="scale(.266) translate(-0,0)"><circle class="stroke" cx="30" cy="30" r="26"/></g><g id="i-23" transform="scale(.266) translate(-86,0)"><path d="M28.3 2.6 23 11a2 2 0 0 0 1.7 3.1H26v12h-7a6 6 0 0 1-6-6v-6h.4a2 2 0 0 0 1.8-3L13 7.4V7h-.3l-2.5-4.2a2 2 0 0 0-3.4 0l-5 8.2a2 2 0 0 0 1.8 3H5v6a14 14 0 0 0 14 14h7v22a4 4 0 1 0 8 0V34h8a14 14 0 0 0 14-14v-6h.4a2 2 0 0 0 1.8-3L56 7.4V7h-.3l-2.5-4.2a2 2 0 0 0-3.4 0l-5 8.2a2 2 0 0 0 1.8 3H48v6a6 6 0 0 1-6 6h-8V14h1.3a2 2 0 0 0 1.7-3l-5.3-8.4a2 2 0 0 0-3.4 0Z"/></g><g id="i-22" transform="scale(.266) translate(-172,0)"><path d="M16 8A8 8 0 1 1 0 8a8 8 0 0 1 16 0Z"/><path d="M3.2 57.8a4 4 0 0 1 0-5.6l49-49a4 4 0 0 1 5.6 5.6l-49 49a4 4 0 0 1-5.6 0Z"/><path d="M52 60a8 8 0 1 0 0-16 8 8 0 0 0 0 16Z"/></g><g id="i-21" transform="scale(.266) translate(-258,0)"><path fill-rule="evenodd" clip-rule="evenodd" d="M42.7 1a4 4 0 0 1 4 4v50.6a4 4 0 1 1-8 0V40.2l-11.9 12a4 4 0 1 1-5.6-5.7l12.1-12.2H17a4 4 0 0 1 0-8h15.3L21.2 15a4 4 0 1 1 5.6-5.6l12 11.8V5a4 4 0 0 1 4-4Z"/></g><g id="i-16" transform="scale(.266) translate(-344,0)"><path d="M28.1 2.9a2 2 0 0 1 3.8 0l5.5 16.9a2 2 0 0 0 2 1.4H57a2 2 0 0 1 1.2 3.6L44 35.3a2 2 0 0 0-.7 2.2l5.5 17a2 2 0 0 1-3.1 2.2L31.2 46.2a2 2 0 0 0-2.4 0L14.4 56.7a2 2 0 0 1-3-2.2l5.4-17a2 2 0 0 0-.7-2.2L1.7 24.8a2 2 0 0 1 1.2-3.6h17.8a2 2 0 0 0 1.9-1.4l5.5-17Z"/></g><g id="i-10" transform="scale(.266) translate(-430,0)"><path d="M2 51 28.2 8.6a2 2 0 0 1 3.4 0L58.1 51a2 2 0 0 1-1.7 3.1H3.6A2 2 0 0 1 2 51Z"/></g><g id="i-8" transform="scale(.266) translate(-516,0)"><g class="stroke"><path d="M44 20.8h13.8V7"/><path d="M12 11a25.4 25.4 0 0 1 36 0l9.8 9.8"/><path d="M16 37.2H2.3V51"/><path d="M48 47a25.4 25.4 0 0 1-36 0l-9.8-9.8"/></g></g><g id="i-6" transform="scale(.266) translate(-602,0)"><path d="M34 4a4 4 0 0 0-8 0v22H4a4 4 0 0 0 0 8h22v22a4 4 0 0 0 8 0V34h22a4 4 0 0 0 0-8H34V4Z"/></g><g id="i-5" transform="scale(.266) translate(-688,0)"><path fill-rule="evenodd" clip-rule="evenodd" d="M30 60a30 30 0 1 0 0-60 30 30 0 0 0 0 60ZM17.5 31c3.6 0 6.5-4.3 6.5-9.5S21 12 17.5 12c-3.6 0-6.5 4.3-6.5 9.5s3 9.5 6.5 9.5ZM49 21.5c0 5.2-3 9.5-6.5 9.5-3.6 0-6.5-4.3-6.5-9.5s3-9.5 6.5-9.5c3.6 0 6.5 4.3 6.5 9.5Zm-2.8 21.9a4 4 0 1 0-6.4-4.8c-5.1 7-15.2 7.3-20.6 0a4 4 0 0 0-6.4 4.8 20.5 20.5 0 0 0 33.4 0Z"/></g><g id="i-2" transform="scale(.266) translate(-774,0)"><g class="stroke"><path d="m12 12 37 37"/><path d="m12 49 37-37"/><path d="M5.4 30H56"/><path d="M30.7 55.3V4.7"/></g></g></g></g></svg>