<svg xmlns="http://www.w3.org/2000/svg" width="350" height="350"><style>.p #bg{fill:#ddd} .c #bg{fill:#222} .p .factor,.p #text{fill:#222} .c .factor,.c #text{fill:#ddd} .sexy{fill:#e44C21} .cousin{fill:#348C47} .twin {fill:#3C4CE1} #grid .factor{r: 8} .c #icons *{fill: #ddd} .p #icons * {fill:#222} #icons .stroke *{fill:none} #icons .stroke {fill:none;stroke:#222;stroke-width:8} .c #icons .stroke{stroke:#ddd} .square{stroke-width:2;fill:none;stroke:#222;r:8} .c .square{stroke:#ddd} #icons #i-4 circle{stroke-width:20}</style><g class="p"><rect id="bg" width="100%" height="100%" /><g id="grid" transform="translate(26,26)"><g opacity=".2"></g><circle r="8" cx="0" cy="0" class="factor"><animate attributeName="opacity" values="1;.3;1" dur="40s" repeatCount="indefinite"/></circle></g><g id="text" transform="translate(18,318)"><g transform="translate(0,0)"><path d="M4 12.2V1h-.2L1.6 6H0L2.5.2h3.2v12h3.8v1.4H.2v-1.5H4Z" /></g></g><g id="icons" transform="translate(317,317)"><g id="i-24" transform="scale(.266) translate(-0,0)"><path d="M30-.5c.7 0 1.4.2 2 .5h12a4 4 0 0 1 0 8h-9.5v44H44a4 4 0 0 1 0 8H32a4.5 4.5 0 0 1-4 0H17a4 4 0 0 1 0-8h8.5V8H17a4 4 0 0 1 0-8h11c.6-.3 1.3-.5 2-.5Z"/></g><g id="i-22" transform="scale(.266) translate(-86,0)"><path d="M16 8A8 8 0 1 1 0 8a8 8 0 0 1 16 0Z"/><path d="M3.2 57.8a4 4 0 0 1 0-5.6l49-49a4 4 0 0 1 5.6 5.6l-49 49a4 4 0 0 1-5.6 0Z"/><path d="M52 60a8 8 0 1 0 0-16 8 8 0 0 0 0 16Z"/></g><g id="i-19" transform="scale(.266) translate(-172,0)"><path fill-rule="evenodd" clip-rule="evenodd" d="M30 60a30 30 0 1 0 0-60 30 30 0 0 0 0 60ZM17.5 23c5 0 6.5 3.7 6.5-1.5S21 12 17.5 12c-3.6 0-6.5 4.3-6.5 9.5s1.5 1.5 6.5 1.5ZM49 21.5c0 5.2-2 1.5-6.5 1.5-5 0-6.5 3.7-6.5-1.5s3-9.5 6.5-9.5c3.6 0 6.5 4.3 6.5 9.5Zm-2.8 21.9c1.3-1.8 1.4-5.6-.8-5.6H13.6a4 4 0 0 0-.8 5.6 20.5 20.5 0 0 0 33.4 0Z"/></g><g id="i-17" transform="scale(.266) translate(-258,0)"><path d="M31.3 23.8a2 2 0 0 1-2.6 0C20.3 16.4 16 12.4 16 7.5 16 3.4 19.3 0 23.5 0a9 9 0 0 1 4.8 1.3c1 .7 2.4.7 3.4 0C33 .5 34.7 0 36.3 0 40.5 0 44 3.2 44 7.3c0 5-4.3 9.1-12.7 16.5Z"/><path d="M23.8 28.7C16.4 20.3 12.4 16 7.3 16c-4 0-7.3 3.5-7.3 7.7 0 1.7.5 3.3 1.3 4.6.7 1 .7 2.4 0 3.4A9 9 0 0 0 0 36.5C0 40.7 3.4 44 7.5 44c4.9 0 9-4.3 16.3-12.7a2 2 0 0 0 0-2.6Z"/><path d="M52.7 44c-5 0-9.1-4.3-16.5-12.7a2 2 0 0 1 0-2.6C43.6 20.3 47.6 16 52.5 16c4 0 7.5 3.3 7.5 7.5a9 9 0 0 1-1.3 4.8c-.7 1-.7 2.4 0 3.4.8 1.3 1.3 3 1.3 4.6 0 4.2-3.2 7.7-7.3 7.7Z"/><path d="M28.7 36.2C20.3 43.6 16 47.6 16 52.7c0 4 3.5 7.3 7.7 7.3 1.7 0 3.3-.5 4.6-1.3 1-.7 2.4-.7 3.4 0a9 9 0 0 0 4.8 1.3c4.2 0 7.5-3.4 7.5-7.5 0-4.9-4.3-9-12.7-16.3a2 2 0 0 0-2.6 0Z"/></g><g id="i-16" transform="scale(.266) translate(-344,0)"><path d="M28.1 2.9a2 2 0 0 1 3.8 0l5.5 16.9a2 2 0 0 0 2 1.4H57a2 2 0 0 1 1.2 3.6L44 35.3a2 2 0 0 0-.7 2.2l5.5 17a2 2 0 0 1-3.1 2.2L31.2 46.2a2 2 0 0 0-2.4 0L14.4 56.7a2 2 0 0 1-3-2.2l5.4-17a2 2 0 0 0-.7-2.2L1.7 24.8a2 2 0 0 1 1.2-3.6h17.8a2 2 0 0 0 1.9-1.4l5.5-17Z"/></g><g id="i-14" transform="scale(.266) translate(-430,0)"><rect width="60" height="60" rx="2"/></g><g id="i-10" transform="scale(.266) translate(-516,0)"><path d="M2 51 28.2 8.6a2 2 0 0 1 3.4 0L58.1 51a2 2 0 0 1-1.7 3.1H3.6A2 2 0 0 1 2 51Z"/></g><g id="i-8" transform="scale(.266) translate(-602,0)"><g class="stroke"><path d="M44 20.8h13.8V7"/><path d="M12 11a25.4 25.4 0 0 1 36 0l9.8 9.8"/><path d="M16 37.2H2.3V51"/><path d="M48 47a25.4 25.4 0 0 1-36 0l-9.8-9.8"/></g></g><g id="i-7" transform="scale(.266) translate(-688,0)"><path class="stroke" d="M31.3 23a.6.6 0 0 0 0-.4.6.6 0 0 0-.5-.2h-.3a.8.8 0 0 0-.5.3l-.1.4v.3a1 1 0 0 0 .5.7 1.2 1.2 0 0 0 .9.2l.5-.2.4-.5.2-.5a1.7 1.7 0 0 0-.3-1.3 2 2 0 0 0-1.3-.8h-.9l-.8.4c-.3.1-.5.4-.7.7-.2.3-.3.6-.3 1a3 3 0 0 0 .5 2.2 3.3 3.3 0 0 0 2.2 1.4h1.5a4 4 0 0 0 1.4-.7c.5-.3.9-.7 1.2-1.2a5.1 5.1 0 0 0-.2-5.6 5.8 5.8 0 0 0-3.9-2.4c-.8-.2-1.7-.2-2.6 0a7 7 0 0 0-2.5 1.2 8 8 0 0 0-2 2.1c-.5.9-.9 1.9-1 3a8.8 8.8 0 0 0 1.5 6.7 10 10 0 0 0 6.6 4.1c1.4.3 3 .3 4.4 0a13 13 0 0 0 7.8-5.6c1-1.6 1.6-3.4 2-5.2a15.2 15.2 0 0 0-2.7-11.6 17.2 17.2 0 0 0-11.5-7.2c-2.4-.4-5-.4-7.6.2-2.6.6-5.2 1.7-7.5 3.3a22.6 22.6 0 0 0-6 6.4 24.5 24.5 0 0 0-3.3 8.9A26.3 26.3 0 0 0 11 43a29.7 29.7 0 0 0 19.8 12.4A33.5 33.5 0 0 0 54.2 51"/></g></g></g></svg>