<svg xmlns="http://www.w3.org/2000/svg" width="350" height="350"><style>.p #bg{fill:#ddd} .c #bg{fill:#222} .p .factor,.p #text{fill:#222} .c .factor,.c #text{fill:#ddd} .sexy{fill:#e44C21} .cousin{fill:#348C47} .twin {fill:#3C4CE1} #grid .factor{r: 8} .c #icons *{fill: #ddd} .p #icons * {fill:#222} #icons .stroke *{fill:none} #icons .stroke {fill:none;stroke:#222;stroke-width:8} .c #icons .stroke{stroke:#ddd} .square{stroke-width:2;fill:none;stroke:#222;r:8} .c .square{stroke:#ddd} #icons #i-4 circle{stroke-width:20}</style><g class="p"><rect id="bg" width="100%" height="100%" /><g id="grid" transform="translate(26,26)"><g opacity=".2"><circle r="8" cx="46" cy="23" class="square"><animate attributeName="opacity" values="1;.3;1" dur="2.352920s" repeatCount="indefinite"/></circle><circle r="8" cx="69" cy="46" class="square"><animate attributeName="opacity" values="1;.3;1" dur="1.250000s" repeatCount="indefinite"/></circle><circle r="8" cx="92" cy="69" class="square"><animate attributeName="opacity" values="1;.3;1" dur="0.851040s" repeatCount="indefinite"/></circle><circle r="8" cx="115" cy="92" class="square"><animate attributeName="opacity" values="1;.3;1" dur="0.645160s" repeatCount="indefinite"/></circle><circle r="8" cx="138" cy="115" class="square"><animate attributeName="opacity" values="1;.3;1" dur="0.519480s" repeatCount="indefinite"/></circle><circle r="8" cx="161" cy="138" class="square"><animate attributeName="opacity" values="1;.3;1" dur="0.434760s" repeatCount="indefinite"/></circle><circle r="8" cx="184" cy="161" class="square"><animate attributeName="opacity" values="1;.3;1" dur="0.373800s" repeatCount="indefinite"/></circle><circle r="8" cx="207" cy="184" class="square"><animate attributeName="opacity" values="1;.3;1" dur="0.327840s" repeatCount="indefinite"/></circle><circle r="8" cx="230" cy="207" class="square"><animate attributeName="opacity" values="1;.3;1" dur="0.291960s" repeatCount="indefinite"/></circle><circle r="8" cx="253" cy="230" class="square"><animate attributeName="opacity" values="1;.3;1" dur="0.263120s" repeatCount="indefinite"/></circle><circle r="8" cx="276" cy="253" class="square"><animate attributeName="opacity" values="1;.3;1" dur="0.239520s" repeatCount="indefinite"/></circle><circle r="8" cx="299" cy="276" class="square"><animate attributeName="opacity" values="1;.3;1" dur="0.219760s" repeatCount="indefinite"/></circle></g><circle r="8" cx="23" cy="0" class="factor"><animate attributeName="opacity" values="1;.3;1" dur="20.000000s" repeatCount="indefinite"/></circle></g><g id="text" transform="translate(18,318)"><g transform="translate(0,0)"><path d="M9.2 12.2v1.5h-9v-2.3c0-.6 0-1.1.2-1.6.2-.4.5-.8.9-1.1.4-.4.8-.7 1.4-.9l1.8-.5c1.1-.3 2-.7 2.5-1.1.5-.5.7-1 .7-1.8l-.1-1.1-.6-1c-.2-.2-.5-.4-1-.5-.3-.2-.7-.3-1.3-.3a3 3 0 0 0-2.3.9c-.5.6-.8 1.4-.8 2.4v.9H0v-1l.3-1.8c.2-.5.5-1 1-1.5.3-.4.8-.8 1.4-1a5 5 0 0 1 2-.4c.8 0 1.5.1 2 .4.6.2 1.1.5 1.5 1 .4.3.7.7.9 1.2.2.5.2 1 .2 1.5v.4c0 1-.3 1.9-1 2.6-.6.7-1.6 1.2-3 1.6-1.2.2-2.1.6-2.7 1-.6.5-.9 1.1-.9 2v.5h7.5Z" /></g></g><g id="icons" transform="translate(317,317)"><g id="i-24" transform="scale(.266) translate(-0,0)"><circle cx="30" cy="30" r="30"/></g><g id="i-22" transform="scale(.266) translate(-86,0)"><path d="M16 8A8 8 0 1 1 0 8a8 8 0 0 1 16 0Z"/><path d="M3.2 57.8a4 4 0 0 1 0-5.6l49-49a4 4 0 0 1 5.6 5.6l-49 49a4 4 0 0 1-5.6 0Z"/><path d="M52 60a8 8 0 1 0 0-16 8 8 0 0 0 0 16Z"/></g><g id="i-20" transform="scale(.266) translate(-172,0)"><path d="M8.8 2.2a4 4 0 0 0-5.6 5.6l21.6 21.7L3.2 51.2a4 4 0 1 0 5.6 5.6l21.7-21.6 21.7 21.6a4 4 0 1 0 5.6-5.6L36.2 29.5 57.8 7.8a4 4 0 1 0-5.6-5.6L30.5 23.8 8.8 2.2Z"/></g><g id="i-16" transform="scale(.266) translate(-258,0)"><path d="M28.1 2.9a2 2 0 0 1 3.8 0l5.5 16.9a2 2 0 0 0 2 1.4H57a2 2 0 0 1 1.2 3.6L44 35.3a2 2 0 0 0-.7 2.2l5.5 17a2 2 0 0 1-3.1 2.2L31.2 46.2a2 2 0 0 0-2.4 0L14.4 56.7a2 2 0 0 1-3-2.2l5.4-17a2 2 0 0 0-.7-2.2L1.7 24.8a2 2 0 0 1 1.2-3.6h17.8a2 2 0 0 0 1.9-1.4l5.5-17Z"/></g><g id="i-11" transform="scale(.266) translate(-344,0)"><path d="M11.6 32.2c-4.1-1.4-7-3.1-9-5.1C1 25.1 0 22.7 0 19.9c0-3.2 1-5.8 3-7.6 2-1.9 4.8-2.8 8.3-2.8 3.3 0 6.2.4 8.7 1.2.8.3 1.4.7 1.9 1.5.5.7.7 1.5.7 2.3 0 .6-.3 1.1-.8 1.5-.5.3-1 .3-1.7 0a21 21 0 0 0-8.3-1.7c-1.9 0-3.4.5-4.4 1.5-1 1-1.6 2.3-1.6 4a6 6 0 0 0 1.5 4c1 1.1 2.4 2 4.3 2.6 4.7 1.7 8 3.4 9.8 5.4 1.9 2 2.8 4.5 2.8 7.5 0 3.7-1 6.5-3.3 8.4-2.2 1.9-5.5 2.8-9.9 2.8-2.8 0-5.4-.4-7.7-1.3-1.6-.7-2.5-2-2.5-4 0-.7.3-1.1.8-1.4.6-.3 1-.3 1.6 0a15 15 0 0 0 7.3 1.8c5.2 0 7.8-2.1 7.8-6.3 0-1.6-.5-3-1.6-4.1-1-1.1-2.7-2.1-5.1-3Z"/><path d="M47.6 50.5c-5.5 0-10-1.9-13.5-5.6A20.8 20.8 0 0 1 28.8 30c0-6.3 1.8-11.3 5.3-15 3.6-3.7 8.4-5.5 14.6-5.5 2.5 0 4.8.2 7 .5a3.1 3.1 0 0 1 2.5 3.1c0 .7-.3 1.2-.8 1.6a2 2 0 0 1-1.7.3c-2-.5-4-.7-6.5-.7-4.6 0-8.2 1.4-10.7 4C36 21 34.8 25 34.8 30a17 17 0 0 0 3.7 11.5c2.4 2.8 5.6 4.2 9.7 4.2 2 0 4-.3 5.8-.9.2 0 .3-.2.3-.5V31.5c0-.3-.1-.5-.4-.5H45c-.7 0-1.2-.2-1.7-.6-.4-.5-.6-1-.6-1.7s.2-1.2.6-1.7c.5-.4 1-.7 1.7-.7h11.8a3 3 0 0 1 2.2 1 3 3 0 0 1 .9 2.2v15.4c0 1-.3 1.8-.8 2.6s-1.2 1.3-2 1.6c-2.9 1-6 1.4-9.6 1.4Z"/></g><g id="i-8" transform="scale(.266) translate(-430,0)"><g class="stroke"><path d="M44 20.8h13.8V7"/><path d="M12 11a25.4 25.4 0 0 1 36 0l9.8 9.8"/><path d="M16 37.2H2.3V51"/><path d="M48 47a25.4 25.4 0 0 1-36 0l-9.8-9.8"/></g></g><g id="i-7" transform="scale(.266) translate(-516,0)"><path class="stroke" d="M31.3 23a.6.6 0 0 0 0-.4.6.6 0 0 0-.5-.2h-.3a.8.8 0 0 0-.5.3l-.1.4v.3a1 1 0 0 0 .5.7 1.2 1.2 0 0 0 .9.2l.5-.2.4-.5.2-.5a1.7 1.7 0 0 0-.3-1.3 2 2 0 0 0-1.3-.8h-.9l-.8.4c-.3.1-.5.4-.7.7-.2.3-.3.6-.3 1a3 3 0 0 0 .5 2.2 3.3 3.3 0 0 0 2.2 1.4h1.5a4 4 0 0 0 1.4-.7c.5-.3.9-.7 1.2-1.2a5.1 5.1 0 0 0-.2-5.6 5.8 5.8 0 0 0-3.9-2.4c-.8-.2-1.7-.2-2.6 0a7 7 0 0 0-2.5 1.2 8 8 0 0 0-2 2.1c-.5.9-.9 1.9-1 3a8.8 8.8 0 0 0 1.5 6.7 10 10 0 0 0 6.6 4.1c1.4.3 3 .3 4.4 0a13 13 0 0 0 7.8-5.6c1-1.6 1.6-3.4 2-5.2a15.2 15.2 0 0 0-2.7-11.6 17.2 17.2 0 0 0-11.5-7.2c-2.4-.4-5-.4-7.6.2-2.6.6-5.2 1.7-7.5 3.3a22.6 22.6 0 0 0-6 6.4 24.5 24.5 0 0 0-3.3 8.9A26.3 26.3 0 0 0 11 43a29.7 29.7 0 0 0 19.8 12.4A33.5 33.5 0 0 0 54.2 51"/></g><g id="i-6" transform="scale(.266) translate(-602,0)"><path d="M34 4a4 4 0 0 0-8 0v22H4a4 4 0 0 0 0 8h22v22a4 4 0 0 0 8 0V34h22a4 4 0 0 0 0-8H34V4Z"/></g><g id="i-3" transform="scale(.266) translate(-688,0)"><path d="M30.8 7.3c-10 0-15.4 5.9-16.4 17.8 0 .6.3.8 1 .8h29c.6 0 1-.2 1-.8C44.8 13.2 40 7.3 30.7 7.3Zm2.3 52c-8.8 0-15.6-2.4-20.2-7.2C8.3 47 6 39.9 6 30c0-10 2.2-17.3 6.6-22A23.8 23.8 0 0 1 30.8 1C45 1 52.5 9.4 53.4 26.2c0 1.7-.5 3.2-1.8 4.4a6.2 6.2 0 0 1-4.5 1.7h-32c-.5 0-.8.3-.8 1C15 46.5 21.5 53 34 53c4 0 8.3-.8 12.6-2.3.8-.3 1.5-.2 2.3.3.7.4 1 1 1 2 0 2.4-1 4-3.3 4.5-4.6 1.1-9 1.7-13.4 1.7Z"/></g></g></g></svg>