<svg xmlns="http://www.w3.org/2000/svg" width="350" height="350"><style>.p #bg{fill:#ddd} .c #bg{fill:#222} .p .factor,.p #text{fill:#222} .c .factor,.c #text{fill:#ddd} .sexy{fill:#e44C21} .cousin{fill:#348C47} .twin {fill:#3C4CE1} #grid .factor{r: 8} .c #icons *{fill: #ddd} .p #icons * {fill:#222} #icons .stroke *{fill:none} #icons .stroke {fill:none;stroke:#222;stroke-width:8} .c #icons .stroke{stroke:#ddd} .square{stroke-width:2;fill:none;stroke:#222;r:8} .c .square{stroke:#ddd} #icons #i-4 circle{stroke-width:20}</style><g class="c"><rect id="bg" width="100%" height="100%" /><g id="grid" transform="translate(26,26)"><g opacity=".2"><circle r="8" cx="46" cy="46" class="square"><animate attributeName="opacity" values="1;.3;1" dur="1.290320s" repeatCount="indefinite"/></circle><circle r="8" cx="138" cy="46" class="square"><animate attributeName="opacity" values="1;.3;1" dur="1.142840s" repeatCount="indefinite"/></circle><circle r="8" cx="161" cy="46" class="square"><animate attributeName="opacity" values="1;.3;1" dur="1.111080s" repeatCount="indefinite"/></circle><circle r="8" cx="69" cy="69" class="square"><animate attributeName="opacity" values="1;.3;1" dur="0.869560s" repeatCount="indefinite"/></circle><circle r="8" cx="92" cy="69" class="square"><animate attributeName="opacity" values="1;.3;1" dur="0.851040s" repeatCount="indefinite"/></circle><circle r="8" cx="115" cy="69" class="square"><animate attributeName="opacity" values="1;.3;1" dur="0.833320s" repeatCount="indefinite"/></circle><circle r="8" cx="161" cy="69" class="square"><animate attributeName="opacity" values="1;.3;1" dur="0.800000s" repeatCount="indefinite"/></circle><circle r="8" cx="207" cy="69" class="square"><animate attributeName="opacity" values="1;.3;1" dur="0.769200s" repeatCount="indefinite"/></circle><circle r="8" cx="253" cy="69" class="square"><animate attributeName="opacity" values="1;.3;1" dur="0.740720s" repeatCount="indefinite"/></circle></g><circle r="8" cx="23" cy="0" class="factor"><animate attributeName="opacity" values="1;.3;1" dur="20.000000s" repeatCount="indefinite"/></circle><circle r="8" cx="0" cy="23" class="factor"><animate attributeName="opacity" values="1;.3;1" dur="2.666640s" repeatCount="indefinite"/></circle><circle r="8" cx="23" cy="23" class="factor"><animate attributeName="opacity" values="1;.3;1" dur="2.500000s" repeatCount="indefinite"/></circle><circle r="8" cx="46" cy="23" class="factor"><animate attributeName="opacity" values="1;.3;1" dur="2.352920s" repeatCount="indefinite"/></circle></g><g id="text" transform="translate(18,318)"><g transform="translate(0,0)"><path d="M4 12.2V1h-.2L1.6 6H0L2.5.2h3.2v12h3.8v1.4H.2v-1.5H4Z" /></g><g transform="translate(12,0)"><path d="M4.7.3h3.1v9.4H10v1.5H8v2.5H6.1v-2.5H0V9L4.7.3ZM1.4 9.5v.2h4.8V1H6L1.4 9.5Z" /></g></g><g id="icons" transform="translate(317,317)"><g id="i-24" transform="scale(.266) translate(-0,0)"><circle class="stroke" cx="30" cy="30" r="26"/></g><g id="i-16" transform="scale(.266) translate(-86,0)"><path d="M28.1 2.9a2 2 0 0 1 3.8 0l5.5 16.9a2 2 0 0 0 2 1.4H57a2 2 0 0 1 1.2 3.6L44 35.3a2 2 0 0 0-.7 2.2l5.5 17a2 2 0 0 1-3.1 2.2L31.2 46.2a2 2 0 0 0-2.4 0L14.4 56.7a2 2 0 0 1-3-2.2l5.4-17a2 2 0 0 0-.7-2.2L1.7 24.8a2 2 0 0 1 1.2-3.6h17.8a2 2 0 0 0 1.9-1.4l5.5-17Z"/></g></g></g></svg>