<svg xmlns="http://www.w3.org/2000/svg" width="350" height="350"><style>.p #bg{fill:#ddd} .c #bg{fill:#222} .p .factor,.p #text{fill:#222} .c .factor,.c #text{fill:#ddd} .sexy{fill:#e44C21} .cousin{fill:#348C47} .twin {fill:#3C4CE1} #grid .factor{r: 8} .c #icons *{fill: #ddd} .p #icons * {fill:#222} #icons .stroke *{fill:none} #icons .stroke {fill:none;stroke:#222;stroke-width:8} .c #icons .stroke{stroke:#ddd} .square{stroke-width:2;fill:none;stroke:#222;r:8} .c .square{stroke:#ddd} #icons #i-4 circle{stroke-width:20}</style><g class="p"><rect id="bg" width="100%" height="100%" /><g id="grid" transform="translate(26,26)"><g opacity=".2"><circle r="8" cx="0" cy="23" class="square"><animate attributeName="opacity" values="1;.3;1" dur="2.666640s" repeatCount="indefinite"/></circle><circle r="8" cx="69" cy="23" class="square"><animate attributeName="opacity" values="1;.3;1" dur="2.222200s" repeatCount="indefinite"/></circle><circle r="8" cx="92" cy="23" class="square"><animate attributeName="opacity" values="1;.3;1" dur="2.105240s" repeatCount="indefinite"/></circle><circle r="8" cx="115" cy="23" class="square"><animate attributeName="opacity" values="1;.3;1" dur="2.000000s" repeatCount="indefinite"/></circle><circle r="8" cx="138" cy="23" class="square"><animate attributeName="opacity" values="1;.3;1" dur="1.904760s" repeatCount="indefinite"/></circle><circle r="8" cx="0" cy="46" class="square"><animate attributeName="opacity" values="1;.3;1" dur="1.379280s" repeatCount="indefinite"/></circle><circle r="8" cx="23" cy="46" class="square"><animate attributeName="opacity" values="1;.3;1" dur="1.333320s" repeatCount="indefinite"/></circle><circle r="8" cx="92" cy="46" class="square"><animate attributeName="opacity" values="1;.3;1" dur="1.212120s" repeatCount="indefinite"/></circle><circle r="8" cx="115" cy="46" class="square"><animate attributeName="opacity" values="1;.3;1" dur="1.176440s" repeatCount="indefinite"/></circle><circle r="8" cx="184" cy="46" class="square"><animate attributeName="opacity" values="1;.3;1" dur="1.081080s" repeatCount="indefinite"/></circle><circle r="8" cx="230" cy="46" class="square"><animate attributeName="opacity" values="1;.3;1" dur="1.025640s" repeatCount="indefinite"/></circle><circle r="8" cx="0" cy="69" class="square"><animate attributeName="opacity" values="1;.3;1" dur="0.930200s" repeatCount="indefinite"/></circle><circle r="8" cx="92" cy="69" class="square"><animate attributeName="opacity" values="1;.3;1" dur="0.851040s" repeatCount="indefinite"/></circle><circle r="8" cx="115" cy="69" class="square"><animate attributeName="opacity" values="1;.3;1" dur="0.833320s" repeatCount="indefinite"/></circle><circle r="8" cx="184" cy="69" class="square"><animate attributeName="opacity" values="1;.3;1" dur="0.784280s" repeatCount="indefinite"/></circle><circle r="8" cx="253" cy="69" class="square"><animate attributeName="opacity" values="1;.3;1" dur="0.740720s" repeatCount="indefinite"/></circle><circle r="8" cx="276" cy="69" class="square"><animate attributeName="opacity" values="1;.3;1" dur="0.727240s" repeatCount="indefinite"/></circle><circle r="8" cx="299" cy="69" class="square"><animate attributeName="opacity" values="1;.3;1" dur="0.714280s" repeatCount="indefinite"/></circle></g><circle r="8" cx="0" cy="46" class="twin"><animate attributeName="opacity" values="1;.3;1" dur="1.379280s" repeatCount="indefinite"/></circle><circle r="8" cx="46" cy="46" class="twin"><animate attributeName="opacity" values="1;.3;1" dur="1.290320s" repeatCount="indefinite"/></circle><circle r="8" cx="69" cy="46" class="twin"><animate attributeName="opacity" values="1;.3;1" dur="1.250000s" repeatCount="indefinite"/></circle><circle r="8" cx="0" cy="69" class="cousin"><animate attributeName="opacity" values="1;.3;1" dur="0.930200s" repeatCount="indefinite"/></circle><circle r="8" cx="23" cy="69" class="cousin"><animate attributeName="opacity" values="1;.3;1" dur="0.909080s" repeatCount="indefinite"/></circle><circle r="8" cx="46" cy="69" class="cousin"><animate attributeName="opacity" values="1;.3;1" dur="0.888880s" repeatCount="indefinite"/></circle><circle r="8" cx="0" cy="115" class="sexy"><animate attributeName="opacity" values="1;.3;1" dur="0.563360s" repeatCount="indefinite"/></circle><circle r="8" cx="46" cy="115" class="sexy"><animate attributeName="opacity" values="1;.3;1" dur="0.547920s" repeatCount="indefinite"/></circle><circle r="8" cx="0" cy="138" class="sexy"><animate attributeName="opacity" values="1;.3;1" dur="0.470560s" repeatCount="indefinite"/></circle><circle r="8" cx="92" cy="138" class="sexy"><animate attributeName="opacity" values="1;.3;1" dur="0.449400s" repeatCount="indefinite"/></circle><circle r="8" cx="0" cy="0" class="factor"><animate attributeName="opacity" values="1;.3;1" dur="40s" repeatCount="indefinite"/></circle><circle r="8" cx="23" cy="0" class="factor"><animate attributeName="opacity" values="1;.3;1" dur="20.000000s" repeatCount="indefinite"/></circle><circle r="8" cx="69" cy="0" class="factor"><animate attributeName="opacity" values="1;.3;1" dur="10.000000s" repeatCount="indefinite"/></circle></g><g id="text" transform="translate(18,318)"><g transform="translate(0,0)"><path d="M4 12.2V1h-.2L1.6 6H0L2.5.2h3.2v12h3.8v1.4H.2v-1.5H4Z" /></g><g transform="translate(12,0)"><path d="M4 12.2V1h-.2L1.6 6H0L2.5.2h3.2v12h3.8v1.4H.2v-1.5H4Z" /></g></g><g id="icons" transform="translate(317,317)"><g id="i-24" transform="scale(.266) translate(-0,0)"><circle cx="30" cy="30" r="30"/></g><g id="i-18" transform="scale(.266) translate(-86,0)"><path fill-rule="evenodd" clip-rule="evenodd" d="M56.6 8.3c2 1.4 2.5 4.2 1 6.3l-29.2 42a4.5 4.5 0 0 1-7.3.1L2.4 32.2a4.5 4.5 0 1 1 7.2-5.4l15 19.6 25.7-37c1.4-2 4.2-2.5 6.3-1Z"/></g><g id="i-12" transform="scale(.266) translate(-172,0)"><g class="stroke"><path d="M4 28h52"/><path d="M16 40V15"/><path d="M10 34V21"/><path d="M43.6 40V15"/><path d="M50 34.8V20.2"/></g></g><g id="i-11" transform="scale(.266) translate(-258,0)"><path d="M11.6 32.2c-4.1-1.4-7-3.1-9-5.1C1 25.1 0 22.7 0 19.9c0-3.2 1-5.8 3-7.6 2-1.9 4.8-2.8 8.3-2.8 3.3 0 6.2.4 8.7 1.2.8.3 1.4.7 1.9 1.5.5.7.7 1.5.7 2.3 0 .6-.3 1.1-.8 1.5-.5.3-1 .3-1.7 0a21 21 0 0 0-8.3-1.7c-1.9 0-3.4.5-4.4 1.5-1 1-1.6 2.3-1.6 4a6 6 0 0 0 1.5 4c1 1.1 2.4 2 4.3 2.6 4.7 1.7 8 3.4 9.8 5.4 1.9 2 2.8 4.5 2.8 7.5 0 3.7-1 6.5-3.3 8.4-2.2 1.9-5.5 2.8-9.9 2.8-2.8 0-5.4-.4-7.7-1.3-1.6-.7-2.5-2-2.5-4 0-.7.3-1.1.8-1.4.6-.3 1-.3 1.6 0a15 15 0 0 0 7.3 1.8c5.2 0 7.8-2.1 7.8-6.3 0-1.6-.5-3-1.6-4.1-1-1.1-2.7-2.1-5.1-3Z"/><path d="M47.6 50.5c-5.5 0-10-1.9-13.5-5.6A20.8 20.8 0 0 1 28.8 30c0-6.3 1.8-11.3 5.3-15 3.6-3.7 8.4-5.5 14.6-5.5 2.5 0 4.8.2 7 .5a3.1 3.1 0 0 1 2.5 3.1c0 .7-.3 1.2-.8 1.6a2 2 0 0 1-1.7.3c-2-.5-4-.7-6.5-.7-4.6 0-8.2 1.4-10.7 4C36 21 34.8 25 34.8 30a17 17 0 0 0 3.7 11.5c2.4 2.8 5.6 4.2 9.7 4.2 2 0 4-.3 5.8-.9.2 0 .3-.2.3-.5V31.5c0-.3-.1-.5-.4-.5H45c-.7 0-1.2-.2-1.7-.6-.4-.5-.6-1-.6-1.7s.2-1.2.6-1.7c.5-.4 1-.7 1.7-.7h11.8a3 3 0 0 1 2.2 1 3 3 0 0 1 .9 2.2v15.4c0 1-.3 1.8-.8 2.6s-1.2 1.3-2 1.6c-2.9 1-6 1.4-9.6 1.4Z"/></g><g id="i-8" transform="scale(.266) translate(-344,0)"><g class="stroke"><path d="M44 20.8h13.8V7"/><path d="M12 11a25.4 25.4 0 0 1 36 0l9.8 9.8"/><path d="M16 37.2H2.3V51"/><path d="M48 47a25.4 25.4 0 0 1-36 0l-9.8-9.8"/></g></g><g id="i-4" transform="scale(.266) translate(-430,0)"><circle class="stroke" cx="30" cy="30" r="20"/></g><g id="i-3" transform="scale(.266) translate(-516,0)"><path d="M30.8 7.3c-10 0-15.4 5.9-16.4 17.8 0 .6.3.8 1 .8h29c.6 0 1-.2 1-.8C44.8 13.2 40 7.3 30.7 7.3Zm2.3 52c-8.8 0-15.6-2.4-20.2-7.2C8.3 47 6 39.9 6 30c0-10 2.2-17.3 6.6-22A23.8 23.8 0 0 1 30.8 1C45 1 52.5 9.4 53.4 26.2c0 1.7-.5 3.2-1.8 4.4a6.2 6.2 0 0 1-4.5 1.7h-32c-.5 0-.8.3-.8 1C15 46.5 21.5 53 34 53c4 0 8.3-.8 12.6-2.3.8-.3 1.5-.2 2.3.3.7.4 1 1 1 2 0 2.4-1 4-3.3 4.5-4.6 1.1-9 1.7-13.4 1.7Z"/></g></g></g></svg>