<svg xmlns="http://www.w3.org/2000/svg" width="350" height="350"><style>.p #bg{fill:#ddd} .c #bg{fill:#222} .p .factor,.p #text{fill:#222} .c .factor,.c #text{fill:#ddd} .sexy{fill:#e44C21} .cousin{fill:#348C47} .twin {fill:#3C4CE1} #grid .factor{r: 8} .c #icons *{fill: #ddd} .p #icons * {fill:#222} #icons .stroke *{fill:none} #icons .stroke {fill:none;stroke:#222;stroke-width:8} .c #icons .stroke{stroke:#ddd} .square{stroke-width:2;fill:none;stroke:#222;r:8} .c .square{stroke:#ddd} #icons #i-4 circle{stroke-width:20}</style><g class="c"><rect id="bg" width="100%" height="100%" /><g id="grid" transform="translate(26,26)"><g opacity=".2"><circle r="8" cx="0" cy="46" class="square"><animate attributeName="opacity" values="1;.3;1" dur="1.379280s" repeatCount="indefinite"/></circle><circle r="8" cx="92" cy="46" class="square"><animate attributeName="opacity" values="1;.3;1" dur="1.212120s" repeatCount="indefinite"/></circle><circle r="8" cx="138" cy="46" class="square"><animate attributeName="opacity" values="1;.3;1" dur="1.142840s" repeatCount="indefinite"/></circle><circle r="8" cx="161" cy="46" class="square"><animate attributeName="opacity" values="1;.3;1" dur="1.111080s" repeatCount="indefinite"/></circle><circle r="8" cx="184" cy="46" class="square"><animate attributeName="opacity" values="1;.3;1" dur="1.081080s" repeatCount="indefinite"/></circle><circle r="8" cx="207" cy="46" class="square"><animate attributeName="opacity" values="1;.3;1" dur="1.052600s" repeatCount="indefinite"/></circle><circle r="8" cx="253" cy="46" class="square"><animate attributeName="opacity" values="1;.3;1" dur="1.000000s" repeatCount="indefinite"/></circle></g><circle r="8" cx="0" cy="0" class="factor"><animate attributeName="opacity" values="1;.3;1" dur="40s" repeatCount="indefinite"/></circle><circle r="8" cx="46" cy="0" class="factor"><animate attributeName="opacity" values="1;.3;1" dur="13.333320s" repeatCount="indefinite"/></circle><circle r="8" cx="0" cy="23" class="factor"><animate attributeName="opacity" values="1;.3;1" dur="2.666640s" repeatCount="indefinite"/></circle><circle r="8" cx="23" cy="23" class="factor"><animate attributeName="opacity" values="1;.3;1" dur="2.500000s" repeatCount="indefinite"/></circle><circle r="8" cx="69" cy="23" class="factor"><animate attributeName="opacity" values="1;.3;1" dur="2.222200s" repeatCount="indefinite"/></circle></g><g id="text" transform="translate(18,318)"><g transform="translate(0,0)"><path d="M.2 7.4V.3h8.5v1.5H1.8v4.8H2l.5-.8a3.4 3.4 0 0 1 1.7-1l1.1-.2c.7 0 1.2.1 1.7.3a3.9 3.9 0 0 1 2.3 2.2c.2.6.3 1.1.3 1.8v.3c0 .7-.1 1.3-.3 1.9-.2.5-.5 1-1 1.5-.3.4-.8.8-1.4 1a5 5 0 0 1-2 .4c-.8 0-1.5-.1-2.1-.3-.6-.3-1.1-.6-1.5-1-.5-.4-.8-.9-1-1.4C.1 10.7 0 10 0 9.3V9h1.6v.4c0 1 .3 1.9.9 2.4.6.5 1.4.8 2.3.8.6 0 1 0 1.4-.3l1-.7.6-1.1L8 9V9a3 3 0 0 0-.8-2c-.2-.3-.5-.5-.9-.7a2.6 2.6 0 0 0-1.8 0 2 2 0 0 0-.6.2l-.4.4-.2.5h-3Z" /></g><g transform="translate(12,0)"><path d="M.2 7.4V.3h8.5v1.5H1.8v4.8H2l.5-.8a3.4 3.4 0 0 1 1.7-1l1.1-.2c.7 0 1.2.1 1.7.3a3.9 3.9 0 0 1 2.3 2.2c.2.6.3 1.1.3 1.8v.3c0 .7-.1 1.3-.3 1.9-.2.5-.5 1-1 1.5-.3.4-.8.8-1.4 1a5 5 0 0 1-2 .4c-.8 0-1.5-.1-2.1-.3-.6-.3-1.1-.6-1.5-1-.5-.4-.8-.9-1-1.4C.1 10.7 0 10 0 9.3V9h1.6v.4c0 1 .3 1.9.9 2.4.6.5 1.4.8 2.3.8.6 0 1 0 1.4-.3l1-.7.6-1.1L8 9V9a3 3 0 0 0-.8-2c-.2-.3-.5-.5-.9-.7a2.6 2.6 0 0 0-1.8 0 2 2 0 0 0-.6.2l-.4.4-.2.5h-3Z" /></g></g><g id="icons" transform="translate(317,317)"><g id="i-24" transform="scale(.266) translate(-0,0)"><circle class="stroke" cx="30" cy="30" r="26"/></g><g id="i-10" transform="scale(.266) translate(-86,0)"><path d="M2 51 28.2 8.6a2 2 0 0 1 3.4 0L58.1 51a2 2 0 0 1-1.7 3.1H3.6A2 2 0 0 1 2 51Z"/></g><g id="i-8" transform="scale(.266) translate(-172,0)"><g class="stroke"><path d="M44 20.8h13.8V7"/><path d="M12 11a25.4 25.4 0 0 1 36 0l9.8 9.8"/><path d="M16 37.2H2.3V51"/><path d="M48 47a25.4 25.4 0 0 1-36 0l-9.8-9.8"/></g></g><g id="i-7" transform="scale(.266) translate(-258,0)"><path class="stroke" d="M31.3 23a.6.6 0 0 0 0-.4.6.6 0 0 0-.5-.2h-.3a.8.8 0 0 0-.5.3l-.1.4v.3a1 1 0 0 0 .5.7 1.2 1.2 0 0 0 .9.2l.5-.2.4-.5.2-.5a1.7 1.7 0 0 0-.3-1.3 2 2 0 0 0-1.3-.8h-.9l-.8.4c-.3.1-.5.4-.7.7-.2.3-.3.6-.3 1a3 3 0 0 0 .5 2.2 3.3 3.3 0 0 0 2.2 1.4h1.5a4 4 0 0 0 1.4-.7c.5-.3.9-.7 1.2-1.2a5.1 5.1 0 0 0-.2-5.6 5.8 5.8 0 0 0-3.9-2.4c-.8-.2-1.7-.2-2.6 0a7 7 0 0 0-2.5 1.2 8 8 0 0 0-2 2.1c-.5.9-.9 1.9-1 3a8.8 8.8 0 0 0 1.5 6.7 10 10 0 0 0 6.6 4.1c1.4.3 3 .3 4.4 0a13 13 0 0 0 7.8-5.6c1-1.6 1.6-3.4 2-5.2a15.2 15.2 0 0 0-2.7-11.6 17.2 17.2 0 0 0-11.5-7.2c-2.4-.4-5-.4-7.6.2-2.6.6-5.2 1.7-7.5 3.3a22.6 22.6 0 0 0-6 6.4 24.5 24.5 0 0 0-3.3 8.9A26.3 26.3 0 0 0 11 43a29.7 29.7 0 0 0 19.8 12.4A33.5 33.5 0 0 0 54.2 51"/></g></g></g></svg>