<svg xmlns="http://www.w3.org/2000/svg" width="350" height="350"><style>.p #bg{fill:#ddd} .c #bg{fill:#222} .p .factor,.p #text{fill:#222} .c .factor,.c #text{fill:#ddd} .sexy{fill:#e44C21} .cousin{fill:#348C47} .twin {fill:#3C4CE1} #grid .factor{r: 8} .c #icons *{fill: #ddd} .p #icons * {fill:#222} #icons .stroke *{fill:none} #icons .stroke {fill:none;stroke:#222;stroke-width:8} .c #icons .stroke{stroke:#ddd} .square{stroke-width:2;fill:none;stroke:#222;r:8} .c .square{stroke:#ddd} #icons #i-4 circle{stroke-width:20}</style><g class="p"><rect id="bg" width="100%" height="100%" /><g id="grid" transform="translate(26,26)"><g opacity=".2"></g><circle r="8" cx="0" cy="23" class="twin"><animate attributeName="opacity" values="1;.3;1" dur="2.666640s" repeatCount="indefinite"/></circle><circle r="8" cx="46" cy="23" class="twin"><animate attributeName="opacity" values="1;.3;1" dur="2.352920s" repeatCount="indefinite"/></circle><circle r="8" cx="92" cy="23" class="twin"><animate attributeName="opacity" values="1;.3;1" dur="2.105240s" repeatCount="indefinite"/></circle><circle r="8" cx="161" cy="23" class="twin"><animate attributeName="opacity" values="1;.3;1" dur="1.818160s" repeatCount="indefinite"/></circle><circle r="8" cx="0" cy="138" class="sexy"><animate attributeName="opacity" values="1;.3;1" dur="0.470560s" repeatCount="indefinite"/></circle><circle r="8" cx="46" cy="138" class="sexy"><animate attributeName="opacity" values="1;.3;1" dur="0.459760s" repeatCount="indefinite"/></circle><circle r="8" cx="69" cy="138" class="sexy"><animate attributeName="opacity" values="1;.3;1" dur="0.454520s" repeatCount="indefinite"/></circle><circle r="8" cx="92" cy="138" class="sexy"><animate attributeName="opacity" values="1;.3;1" dur="0.449400s" repeatCount="indefinite"/></circle><circle r="8" cx="161" cy="138" class="sexy"><animate attributeName="opacity" values="1;.3;1" dur="0.434760s" repeatCount="indefinite"/></circle><circle r="8" cx="0" cy="0" class="factor"><animate attributeName="opacity" values="1;.3;1" dur="40s" repeatCount="indefinite"/></circle><circle r="8" cx="23" cy="0" class="factor"><animate attributeName="opacity" values="1;.3;1" dur="20.000000s" repeatCount="indefinite"/></circle><circle r="8" cx="46" cy="0" class="factor"><animate attributeName="opacity" values="1;.3;1" dur="13.333320s" repeatCount="indefinite"/></circle><circle r="8" cx="92" cy="0" class="factor"><animate attributeName="opacity" values="1;.3;1" dur="8.000000s" repeatCount="indefinite"/></circle><circle r="8" cx="161" cy="0" class="factor"><animate attributeName="opacity" values="1;.3;1" dur="5.000000s" repeatCount="indefinite"/></circle></g><g id="text" transform="translate(18,318)"><g transform="translate(0,0)"><path d="M4 12.2V1h-.2L1.6 6H0L2.5.2h3.2v12h3.8v1.4H.2v-1.5H4Z" /></g><g transform="translate(12,0)"><path d="M.2 7.4V.3h8.5v1.5H1.8v4.8H2l.5-.8a3.4 3.4 0 0 1 1.7-1l1.1-.2c.7 0 1.2.1 1.7.3a3.9 3.9 0 0 1 2.3 2.2c.2.6.3 1.1.3 1.8v.3c0 .7-.1 1.3-.3 1.9-.2.5-.5 1-1 1.5-.3.4-.8.8-1.4 1a5 5 0 0 1-2 .4c-.8 0-1.5-.1-2.1-.3-.6-.3-1.1-.6-1.5-1-.5-.4-.8-.9-1-1.4C.1 10.7 0 10 0 9.3V9h1.6v.4c0 1 .3 1.9.9 2.4.6.5 1.4.8 2.3.8.6 0 1 0 1.4-.3l1-.7.6-1.1L8 9V9a3 3 0 0 0-.8-2c-.2-.3-.5-.5-.9-.7a2.6 2.6 0 0 0-1.8 0 2 2 0 0 0-.6.2l-.4.4-.2.5h-3Z" /></g><g transform="translate(24,0)"><path d="M4 12.2V1h-.2L1.6 6H0L2.5.2h3.2v12h3.8v1.4H.2v-1.5H4Z" /></g></g><g id="icons" transform="translate(317,317)"><g id="i-24" transform="scale(.266) translate(-0,0)"><circle cx="30" cy="30" r="30"/></g><g id="i-17" transform="scale(.266) translate(-86,0)"><path d="M31.3 23.8a2 2 0 0 1-2.6 0C20.3 16.4 16 12.4 16 7.5 16 3.4 19.3 0 23.5 0a9 9 0 0 1 4.8 1.3c1 .7 2.4.7 3.4 0C33 .5 34.7 0 36.3 0 40.5 0 44 3.2 44 7.3c0 5-4.3 9.1-12.7 16.5Z"/><path d="M23.8 28.7C16.4 20.3 12.4 16 7.3 16c-4 0-7.3 3.5-7.3 7.7 0 1.7.5 3.3 1.3 4.6.7 1 .7 2.4 0 3.4A9 9 0 0 0 0 36.5C0 40.7 3.4 44 7.5 44c4.9 0 9-4.3 16.3-12.7a2 2 0 0 0 0-2.6Z"/><path d="M52.7 44c-5 0-9.1-4.3-16.5-12.7a2 2 0 0 1 0-2.6C43.6 20.3 47.6 16 52.5 16c4 0 7.5 3.3 7.5 7.5a9 9 0 0 1-1.3 4.8c-.7 1-.7 2.4 0 3.4.8 1.3 1.3 3 1.3 4.6 0 4.2-3.2 7.7-7.3 7.7Z"/><path d="M28.7 36.2C20.3 43.6 16 47.6 16 52.7c0 4 3.5 7.3 7.7 7.3 1.7 0 3.3-.5 4.6-1.3 1-.7 2.4-.7 3.4 0a9 9 0 0 0 4.8 1.3c4.2 0 7.5-3.4 7.5-7.5 0-4.9-4.3-9-12.7-16.3a2 2 0 0 0-2.6 0Z"/></g></g></g></svg>