<svg xmlns="http://www.w3.org/2000/svg" width="350" height="350"><style>.p #bg{fill:#ddd} .c #bg{fill:#222} .p .factor,.p #text{fill:#222} .c .factor,.c #text{fill:#ddd} .sexy{fill:#e44C21} .cousin{fill:#348C47} .twin {fill:#3C4CE1} #grid .factor{r: 8} .c #icons *{fill: #ddd} .p #icons * {fill:#222} #icons .stroke *{fill:none} #icons .stroke {fill:none;stroke:#222;stroke-width:8} .c #icons .stroke{stroke:#ddd} .square{stroke-width:2;fill:none;stroke:#222;r:8} .c .square{stroke:#ddd} #icons #i-4 circle{stroke-width:20}</style><g class="p"><rect id="bg" width="100%" height="100%" /><g id="grid" transform="translate(26,26)"><g opacity=".2"></g><circle r="8" cx="0" cy="23" class="twin"><animate attributeName="opacity" values="1;.3;1" dur="2.666640s" repeatCount="indefinite"/></circle><circle r="8" cx="46" cy="23" class="twin"><animate attributeName="opacity" values="1;.3;1" dur="2.352920s" repeatCount="indefinite"/></circle><circle r="8" cx="115" cy="23" class="twin"><animate attributeName="opacity" values="1;.3;1" dur="2.000000s" repeatCount="indefinite"/></circle><circle r="8" cx="230" cy="23" class="twin"><animate attributeName="opacity" values="1;.3;1" dur="1.600000s" repeatCount="indefinite"/></circle><circle r="8" cx="0" cy="138" class="sexy"><animate attributeName="opacity" values="1;.3;1" dur="0.470560s" repeatCount="indefinite"/></circle><circle r="8" cx="46" cy="138" class="sexy"><animate attributeName="opacity" values="1;.3;1" dur="0.459760s" repeatCount="indefinite"/></circle><circle r="8" cx="69" cy="138" class="sexy"><animate attributeName="opacity" values="1;.3;1" dur="0.454520s" repeatCount="indefinite"/></circle><circle r="8" cx="115" cy="138" class="sexy"><animate attributeName="opacity" values="1;.3;1" dur="0.444440s" repeatCount="indefinite"/></circle><circle r="8" cx="230" cy="138" class="sexy"><animate attributeName="opacity" values="1;.3;1" dur="0.421040s" repeatCount="indefinite"/></circle><circle r="8" cx="0" cy="0" class="factor"><animate attributeName="opacity" values="1;.3;1" dur="40s" repeatCount="indefinite"/></circle><circle r="8" cx="23" cy="0" class="factor"><animate attributeName="opacity" values="1;.3;1" dur="20.000000s" repeatCount="indefinite"/></circle><circle r="8" cx="46" cy="0" class="factor"><animate attributeName="opacity" values="1;.3;1" dur="13.333320s" repeatCount="indefinite"/></circle><circle r="8" cx="115" cy="0" class="factor"><animate attributeName="opacity" values="1;.3;1" dur="6.666640s" repeatCount="indefinite"/></circle><circle r="8" cx="230" cy="0" class="factor"><animate attributeName="opacity" values="1;.3;1" dur="3.636360s" repeatCount="indefinite"/></circle></g><g id="text" transform="translate(18,318)"><g transform="translate(0,0)"><path d="M4 12.2V1h-.2L1.6 6H0L2.5.2h3.2v12h3.8v1.4H.2v-1.5H4Z" /></g><g transform="translate(12,0)"><path d="M0 5.5a6 6 0 0 1 1.3-4C2 .4 3.3 0 4.7 0c1.5 0 2.7.5 3.5 1.4a6 6 0 0 1 1.3 4.1v3c0 1.8-.5 3.2-1.3 4.1-.8 1-2 1.4-3.5 1.4s-2.6-.5-3.5-1.4C.4 11.6 0 10.3 0 8.5v-3Zm4.7 7c1 0 1.8-.3 2.4-1 .5-.8.7-1.8.7-3.1V5.6L7.7 4 7 2.6l-1-.8c-.4-.2-.9-.3-1.4-.3-.5 0-1 0-1.3.3l-1 .8c-.3.4-.5.8-.6 1.3l-.2 1.7v2.8c0 1.3.3 2.3.8 3 .5.8 1.3 1.1 2.3 1.1ZM3.5 7c0-.3.1-.6.4-.9.2-.2.5-.3.8-.3.4 0 .7 0 .9.3.2.3.4.6.4.9 0 .3-.2.6-.4.9-.2.2-.5.3-.9.3-.3 0-.6 0-.8-.3-.3-.3-.4-.6-.4-.9Z" /></g><g transform="translate(24,0)"><path d="M7.5 4.2c0-.8-.3-1.5-.8-2s-1.2-.8-2.1-.8l-1.2.3c-.4.1-.7.3-1 .6a3.2 3.2 0 0 0-.8 2.4v2h.2c.4-.6.8-1 1.4-1.4.5-.3 1.2-.5 1.9-.5.6 0 1.2.1 1.7.4.5.1 1 .4 1.3.8l1 1.4.2 1.9v.2A4.5 4.5 0 0 1 8 12.8c-.4.3-.9.7-1.5.9a5.2 5.2 0 0 1-3.7 0c-.6-.2-1-.5-1.5-1-.4-.3-.7-.8-1-1.3L0 9.6v-5c0-.7.1-1.3.4-1.9.2-.5.5-1 1-1.4.4-.4.9-.8 1.4-1a5.4 5.4 0 0 1 3.6 0 4 4 0 0 1 2.7 3.9H7.5Zm-2.8 8.4c.4 0 .9 0 1.2-.2l1-.7c.3-.2.5-.6.6-1 .2-.3.2-.7.2-1.2v-.2c0-.4 0-.9-.2-1.2a2.7 2.7 0 0 0-1.6-1.6c-.4-.2-.8-.2-1.2-.2a3.1 3.1 0 0 0-2.2.8 3 3 0 0 0-.9 2.1v.4c0 .4 0 .8.2 1.2a2.7 2.7 0 0 0 1.6 1.6l1.3.2Z" /></g><g transform="translate(36,0)"><path d="M3.3 7V4.8L7.7 2v-.2H.1V.3h9v2.4L4.7 5.5v.3h.8a3.7 3.7 0 0 1 4 3.8v.3a3.8 3.8 0 0 1-1.3 3A4.8 4.8 0 0 1 4.9 14c-.8 0-1.5-.1-2-.3a4.4 4.4 0 0 1-2.5-2.4C0 10.7 0 10.2 0 9.5v-1h1.6v1c0 .4 0 .8.2 1.2l.7 1 1 .6a3.8 3.8 0 0 0 2.5 0 3 3 0 0 0 1-.6c.3-.2.5-.5.6-.9.2-.3.2-.7.2-1v-.2c0-.8-.2-1.4-.7-1.9-.5-.4-1.2-.7-2-.7H3.4Z" /></g></g><g id="icons" transform="translate(317,317)"><g id="i-24" transform="scale(.266) translate(-0,0)"><circle cx="30" cy="30" r="30"/></g></g></g></svg>