<svg xmlns="http://www.w3.org/2000/svg" width="350" height="350"><style>.p #bg{fill:#ddd} .c #bg{fill:#222} .p .factor,.p #text{fill:#222} .c .factor,.c #text{fill:#ddd} .sexy{fill:#e44C21} .cousin{fill:#348C47} .twin {fill:#3C4CE1} #grid .factor{r: 8} .c #icons *{fill: #ddd} .p #icons * {fill:#222} #icons .stroke *{fill:none} #icons .stroke {fill:none;stroke:#222;stroke-width:8} .c #icons .stroke{stroke:#ddd} .square{stroke-width:2;fill:none;stroke:#222;r:8} .c .square{stroke:#ddd} #icons #i-4 circle{stroke-width:20}</style><g class="p"><rect id="bg" width="100%" height="100%" /><g id="grid" transform="translate(26,26)"><g opacity=".2"></g><circle r="8" cx="0" cy="46" class="twin"><animate attributeName="opacity" values="1;.3;1" dur="1.379280s" repeatCount="indefinite"/></circle><circle r="8" cx="23" cy="46" class="twin"><animate attributeName="opacity" values="1;.3;1" dur="1.333320s" repeatCount="indefinite"/></circle><circle r="8" cx="46" cy="46" class="twin"><animate attributeName="opacity" values="1;.3;1" dur="1.290320s" repeatCount="indefinite"/></circle><circle r="8" cx="92" cy="46" class="twin"><animate attributeName="opacity" values="1;.3;1" dur="1.212120s" repeatCount="indefinite"/></circle><circle r="8" cx="184" cy="46" class="twin"><animate attributeName="opacity" values="1;.3;1" dur="1.081080s" repeatCount="indefinite"/></circle><circle r="8" cx="230" cy="46" class="twin"><animate attributeName="opacity" values="1;.3;1" dur="1.025640s" repeatCount="indefinite"/></circle><circle r="8" cx="0" cy="69" class="cousin"><animate attributeName="opacity" values="1;.3;1" dur="0.930200s" repeatCount="indefinite"/></circle><circle r="8" cx="92" cy="69" class="cousin"><animate attributeName="opacity" values="1;.3;1" dur="0.851040s" repeatCount="indefinite"/></circle><circle r="8" cx="184" cy="69" class="cousin"><animate attributeName="opacity" values="1;.3;1" dur="0.784280s" repeatCount="indefinite"/></circle><circle r="8" cx="230" cy="69" class="cousin"><animate attributeName="opacity" values="1;.3;1" dur="0.754680s" repeatCount="indefinite"/></circle><circle r="8" cx="0" cy="138" class="sexy"><animate attributeName="opacity" values="1;.3;1" dur="0.470560s" repeatCount="indefinite"/></circle><circle r="8" cx="23" cy="138" class="sexy"><animate attributeName="opacity" values="1;.3;1" dur="0.465080s" repeatCount="indefinite"/></circle><circle r="8" cx="69" cy="138" class="sexy"><animate attributeName="opacity" values="1;.3;1" dur="0.454520s" repeatCount="indefinite"/></circle><circle r="8" cx="92" cy="138" class="sexy"><animate attributeName="opacity" values="1;.3;1" dur="0.449400s" repeatCount="indefinite"/></circle><circle r="8" cx="184" cy="138" class="sexy"><animate attributeName="opacity" values="1;.3;1" dur="0.430080s" repeatCount="indefinite"/></circle><circle r="8" cx="230" cy="138" class="sexy"><animate attributeName="opacity" values="1;.3;1" dur="0.421040s" repeatCount="indefinite"/></circle><circle r="8" cx="0" cy="0" class="factor"><animate attributeName="opacity" values="1;.3;1" dur="40s" repeatCount="indefinite"/></circle><circle r="8" cx="46" cy="0" class="factor"><animate attributeName="opacity" values="1;.3;1" dur="13.333320s" repeatCount="indefinite"/></circle><circle r="8" cx="92" cy="0" class="factor"><animate attributeName="opacity" values="1;.3;1" dur="8.000000s" repeatCount="indefinite"/></circle><circle r="8" cx="184" cy="0" class="factor"><animate attributeName="opacity" values="1;.3;1" dur="4.444440s" repeatCount="indefinite"/></circle><circle r="8" cx="230" cy="0" class="factor"><animate attributeName="opacity" values="1;.3;1" dur="3.636360s" repeatCount="indefinite"/></circle></g><g id="text" transform="translate(18,318)"><g transform="translate(0,0)"><path d="M4 12.2V1h-.2L1.6 6H0L2.5.2h3.2v12h3.8v1.4H.2v-1.5H4Z" /></g><g transform="translate(12,0)"><path d="M3.3 7V4.8L7.7 2v-.2H.1V.3h9v2.4L4.7 5.5v.3h.8a3.7 3.7 0 0 1 4 3.8v.3a3.8 3.8 0 0 1-1.3 3A4.8 4.8 0 0 1 4.9 14c-.8 0-1.5-.1-2-.3a4.4 4.4 0 0 1-2.5-2.4C0 10.7 0 10.2 0 9.5v-1h1.6v1c0 .4 0 .8.2 1.2l.7 1 1 .6a3.8 3.8 0 0 0 2.5 0 3 3 0 0 0 1-.6c.3-.2.5-.5.6-.9.2-.3.2-.7.2-1v-.2c0-.8-.2-1.4-.7-1.9-.5-.4-1.2-.7-2-.7H3.4Z" /></g><g transform="translate(24,0)"><path d="M0 5.5a6 6 0 0 1 1.3-4C2 .4 3.3 0 4.7 0c1.5 0 2.7.5 3.5 1.4a6 6 0 0 1 1.3 4.1v3c0 1.8-.5 3.2-1.3 4.1-.8 1-2 1.4-3.5 1.4s-2.6-.5-3.5-1.4C.4 11.6 0 10.3 0 8.5v-3Zm4.7 7c1 0 1.8-.3 2.4-1 .5-.8.7-1.8.7-3.1V5.6L7.7 4 7 2.6l-1-.8c-.4-.2-.9-.3-1.4-.3-.5 0-1 0-1.3.3l-1 .8c-.3.4-.5.8-.6 1.3l-.2 1.7v2.8c0 1.3.3 2.3.8 3 .5.8 1.3 1.1 2.3 1.1ZM3.5 7c0-.3.1-.6.4-.9.2-.2.5-.3.8-.3.4 0 .7 0 .9.3.2.3.4.6.4.9 0 .3-.2.6-.4.9-.2.2-.5.3-.9.3-.3 0-.6 0-.8-.3-.3-.3-.4-.6-.4-.9Z" /></g><g transform="translate(36,0)"><path d="M4 12.2V1h-.2L1.6 6H0L2.5.2h3.2v12h3.8v1.4H.2v-1.5H4Z" /></g></g><g id="icons" transform="translate(317,317)"><g id="i-24" transform="scale(.266) translate(-0,0)"><circle cx="30" cy="30" r="30"/></g><g id="i-18" transform="scale(.266) translate(-86,0)"><path fill-rule="evenodd" clip-rule="evenodd" d="M56.6 8.3c2 1.4 2.5 4.2 1 6.3l-29.2 42a4.5 4.5 0 0 1-7.3.1L2.4 32.2a4.5 4.5 0 1 1 7.2-5.4l15 19.6 25.7-37c1.4-2 4.2-2.5 6.3-1Z"/></g><g id="i-15" transform="scale(.266) translate(-172,0)"><path d="m14.8 27.7 21.4-16.1a4 4 0 0 0 1.6-3.2V4a2 2 0 0 0-3.2-1.6L2.3 26.8l-.6.4c-.9.6-1.7 1.2-1.7 2.1 0 .7.3 1.4.7 1.7l33.8 28a2 2 0 0 0 3.3-1.5v-5.1a4 4 0 0 0-1.4-3L14.7 30.8a2 2 0 0 1 .1-3.2ZM59.8 5v52.6a2 2 0 0 1-3.3 1.5L22.7 31a2 2 0 0 1 0-3l34-25.7c1.2-1 3.1 1 3.1 2.6Z"/></g><g id="i-12" transform="scale(.266) translate(-258,0)"><g class="stroke"><path d="M4 28h52"/><path d="M16 40V15"/><path d="M10 34V21"/><path d="M43.6 40V15"/><path d="M50 34.8V20.2"/></g></g></g></g></svg>