<svg xmlns="http://www.w3.org/2000/svg" width="350" height="350"><style>.p #bg{fill:#ddd} .c #bg{fill:#222} .p .factor,.p #text{fill:#222} .c .factor,.c #text{fill:#ddd} .sexy{fill:#e44C21} .cousin{fill:#348C47} .twin {fill:#3C4CE1} #grid .factor{r: 8} .c #icons *{fill: #ddd} .p #icons * {fill:#222} #icons .stroke *{fill:none} #icons .stroke {fill:none;stroke:#222;stroke-width:8} .c #icons .stroke{stroke:#ddd} .square{stroke-width:2;fill:none;stroke:#222;r:8} .c .square{stroke:#ddd} #icons #i-4 circle{stroke-width:20}</style><g class="p"><rect id="bg" width="100%" height="100%" /><g id="grid" transform="translate(26,26)"><g opacity=".2"></g><circle r="8" cx="0" cy="115" class="sexy"><animate attributeName="opacity" values="1;.3;1" dur="0.563360s" repeatCount="indefinite"/></circle><circle r="8" cx="23" cy="115" class="sexy"><animate attributeName="opacity" values="1;.3;1" dur="0.555520s" repeatCount="indefinite"/></circle><circle r="8" cx="69" cy="115" class="sexy"><animate attributeName="opacity" values="1;.3;1" dur="0.540520s" repeatCount="indefinite"/></circle><circle r="8" cx="92" cy="115" class="sexy"><animate attributeName="opacity" values="1;.3;1" dur="0.533320s" repeatCount="indefinite"/></circle><circle r="8" cx="138" cy="115" class="sexy"><animate attributeName="opacity" values="1;.3;1" dur="0.519480s" repeatCount="indefinite"/></circle><circle r="8" cx="161" cy="115" class="sexy"><animate attributeName="opacity" values="1;.3;1" dur="0.512800s" repeatCount="indefinite"/></circle><circle r="8" cx="184" cy="115" class="sexy"><animate attributeName="opacity" values="1;.3;1" dur="0.506320s" repeatCount="indefinite"/></circle><circle r="8" cx="207" cy="115" class="sexy"><animate attributeName="opacity" values="1;.3;1" dur="0.500000s" repeatCount="indefinite"/></circle><circle r="8" cx="230" cy="115" class="sexy"><animate attributeName="opacity" values="1;.3;1" dur="0.493800s" repeatCount="indefinite"/></circle><circle r="8" cx="0" cy="0" class="factor"><animate attributeName="opacity" values="1;.3;1" dur="40s" repeatCount="indefinite"/></circle><circle r="8" cx="115" cy="0" class="factor"><animate attributeName="opacity" values="1;.3;1" dur="6.666640s" repeatCount="indefinite"/></circle><circle r="8" cx="138" cy="0" class="factor"><animate attributeName="opacity" values="1;.3;1" dur="5.714280s" repeatCount="indefinite"/></circle><circle r="8" cx="161" cy="0" class="factor"><animate attributeName="opacity" values="1;.3;1" dur="5.000000s" repeatCount="indefinite"/></circle><circle r="8" cx="184" cy="0" class="factor"><animate attributeName="opacity" values="1;.3;1" dur="4.444440s" repeatCount="indefinite"/></circle><circle r="8" cx="207" cy="0" class="factor"><animate attributeName="opacity" values="1;.3;1" dur="4.000000s" repeatCount="indefinite"/></circle><circle r="8" cx="230" cy="0" class="factor"><animate attributeName="opacity" values="1;.3;1" dur="3.636360s" repeatCount="indefinite"/></circle></g><g id="text" transform="translate(18,318)"><g transform="translate(0,0)"><path d="M9.2 12.2v1.5h-9v-2.3c0-.6 0-1.1.2-1.6.2-.4.5-.8.9-1.1.4-.4.8-.7 1.4-.9l1.8-.5c1.1-.3 2-.7 2.5-1.1.5-.5.7-1 .7-1.8l-.1-1.1-.6-1c-.2-.2-.5-.4-1-.5-.3-.2-.7-.3-1.3-.3a3 3 0 0 0-2.3.9c-.5.6-.8 1.4-.8 2.4v.9H0v-1l.3-1.8c.2-.5.5-1 1-1.5.3-.4.8-.8 1.4-1a5 5 0 0 1 2-.4c.8 0 1.5.1 2 .4.6.2 1.1.5 1.5 1 .4.3.7.7.9 1.2.2.5.2 1 .2 1.5v.4c0 1-.3 1.9-1 2.6-.6.7-1.6 1.2-3 1.6-1.2.2-2.1.6-2.7 1-.6.5-.9 1.1-.9 2v.5h7.5Z" /></g><g transform="translate(12,0)"><path d="M0 5.5a6 6 0 0 1 1.3-4C2 .4 3.3 0 4.7 0c1.5 0 2.7.5 3.5 1.4a6 6 0 0 1 1.3 4.1v3c0 1.8-.5 3.2-1.3 4.1-.8 1-2 1.4-3.5 1.4s-2.6-.5-3.5-1.4C.4 11.6 0 10.3 0 8.5v-3Zm4.7 7c1 0 1.8-.3 2.4-1 .5-.8.7-1.8.7-3.1V5.6L7.7 4 7 2.6l-1-.8c-.4-.2-.9-.3-1.4-.3-.5 0-1 0-1.3.3l-1 .8c-.3.4-.5.8-.6 1.3l-.2 1.7v2.8c0 1.3.3 2.3.8 3 .5.8 1.3 1.1 2.3 1.1ZM3.5 7c0-.3.1-.6.4-.9.2-.2.5-.3.8-.3.4 0 .7 0 .9.3.2.3.4.6.4.9 0 .3-.2.6-.4.9-.2.2-.5.3-.9.3-.3 0-.6 0-.8-.3-.3-.3-.4-.6-.4-.9Z" /></g><g transform="translate(24,0)"><path d="M4 12.2V1h-.2L1.6 6H0L2.5.2h3.2v12h3.8v1.4H.2v-1.5H4Z" /></g><g transform="translate(36,0)"><path d="M0 .3h9v2.3l-5.7 8.6-.6 1a2 2 0 0 0-.2 1v.5H.9V12.4a3.9 3.9 0 0 1 .7-1.3l.5-.8L7.6 2v-.2H0V.3Z" /></g></g><g id="icons" transform="translate(317,317)"><g id="i-24" transform="scale(.266) translate(-0,0)"><circle cx="30" cy="30" r="30"/></g></g></g></svg>