<svg xmlns="http://www.w3.org/2000/svg" width="350" height="350"><style>.p #bg{fill:#ddd} .c #bg{fill:#222} .p .factor,.p #text{fill:#222} .c .factor,.c #text{fill:#ddd} .sexy{fill:#e44C21} .cousin{fill:#348C47} .twin {fill:#3C4CE1} #grid .factor{r: 8} .c #icons *{fill: #ddd} .p #icons * {fill:#222} #icons .stroke *{fill:none} #icons .stroke {fill:none;stroke:#222;stroke-width:8} .c #icons .stroke{stroke:#ddd} .square{stroke-width:2;fill:none;stroke:#222;r:8} .c .square{stroke:#ddd} #icons #i-4 circle{stroke-width:20}</style><g class="p"><rect id="bg" width="100%" height="100%" /><g id="grid" transform="translate(26,26)"><g opacity=".2"></g><circle r="8" cx="0" cy="46" class="twin"><animate attributeName="opacity" values="1;.3;1" dur="1.379280s" repeatCount="indefinite"/></circle><circle r="8" cx="46" cy="46" class="twin"><animate attributeName="opacity" values="1;.3;1" dur="1.290320s" repeatCount="indefinite"/></circle><circle r="8" cx="69" cy="46" class="twin"><animate attributeName="opacity" values="1;.3;1" dur="1.250000s" repeatCount="indefinite"/></circle><circle r="8" cx="115" cy="46" class="twin"><animate attributeName="opacity" values="1;.3;1" dur="1.176440s" repeatCount="indefinite"/></circle><circle r="8" cx="184" cy="46" class="twin"><animate attributeName="opacity" values="1;.3;1" dur="1.081080s" repeatCount="indefinite"/></circle><circle r="8" cx="230" cy="46" class="twin"><animate attributeName="opacity" values="1;.3;1" dur="1.025640s" repeatCount="indefinite"/></circle><circle r="8" cx="253" cy="46" class="twin"><animate attributeName="opacity" values="1;.3;1" dur="1.000000s" repeatCount="indefinite"/></circle><circle r="8" cx="0" cy="0" class="factor"><animate attributeName="opacity" values="1;.3;1" dur="40s" repeatCount="indefinite"/></circle><circle r="8" cx="23" cy="0" class="factor"><animate attributeName="opacity" values="1;.3;1" dur="20.000000s" repeatCount="indefinite"/></circle><circle r="8" cx="69" cy="0" class="factor"><animate attributeName="opacity" values="1;.3;1" dur="10.000000s" repeatCount="indefinite"/></circle><circle r="8" cx="115" cy="0" class="factor"><animate attributeName="opacity" values="1;.3;1" dur="6.666640s" repeatCount="indefinite"/></circle><circle r="8" cx="184" cy="0" class="factor"><animate attributeName="opacity" values="1;.3;1" dur="4.444440s" repeatCount="indefinite"/></circle><circle r="8" cx="230" cy="0" class="factor"><animate attributeName="opacity" values="1;.3;1" dur="3.636360s" repeatCount="indefinite"/></circle><circle r="8" cx="253" cy="0" class="factor"><animate attributeName="opacity" values="1;.3;1" dur="3.333320s" repeatCount="indefinite"/></circle></g><g id="text" transform="translate(18,318)"><g transform="translate(0,0)"><path d="M3.3 7V4.8L7.7 2v-.2H.1V.3h9v2.4L4.7 5.5v.3h.8a3.7 3.7 0 0 1 4 3.8v.3a3.8 3.8 0 0 1-1.3 3A4.8 4.8 0 0 1 4.9 14c-.8 0-1.5-.1-2-.3a4.4 4.4 0 0 1-2.5-2.4C0 10.7 0 10.2 0 9.5v-1h1.6v1c0 .4 0 .8.2 1.2l.7 1 1 .6a3.8 3.8 0 0 0 2.5 0 3 3 0 0 0 1-.6c.3-.2.5-.5.6-.9.2-.3.2-.7.2-1v-.2c0-.8-.2-1.4-.7-1.9-.5-.4-1.2-.7-2-.7H3.4Z" /></g><g transform="translate(12,0)"><path d="M3.3 7V4.8L7.7 2v-.2H.1V.3h9v2.4L4.7 5.5v.3h.8a3.7 3.7 0 0 1 4 3.8v.3a3.8 3.8 0 0 1-1.3 3A4.8 4.8 0 0 1 4.9 14c-.8 0-1.5-.1-2-.3a4.4 4.4 0 0 1-2.5-2.4C0 10.7 0 10.2 0 9.5v-1h1.6v1c0 .4 0 .8.2 1.2l.7 1 1 .6a3.8 3.8 0 0 0 2.5 0 3 3 0 0 0 1-.6c.3-.2.5-.5.6-.9.2-.3.2-.7.2-1v-.2c0-.8-.2-1.4-.7-1.9-.5-.4-1.2-.7-2-.7H3.4Z" /></g><g transform="translate(24,0)"><path d="M0 .3h9v2.3l-5.7 8.6-.6 1a2 2 0 0 0-.2 1v.5H.9V12.4a3.9 3.9 0 0 1 .7-1.3l.5-.8L7.6 2v-.2H0V.3Z" /></g><g transform="translate(36,0)"><path d="M4 12.2V1h-.2L1.6 6H0L2.5.2h3.2v12h3.8v1.4H.2v-1.5H4Z" /></g></g><g id="icons" transform="translate(317,317)"><g id="i-24" transform="scale(.266) translate(-0,0)"><circle cx="30" cy="30" r="30"/></g><g id="i-19" transform="scale(.266) translate(-86,0)"><path fill-rule="evenodd" clip-rule="evenodd" d="M30 60a30 30 0 1 0 0-60 30 30 0 0 0 0 60ZM17.5 23c5 0 6.5 3.7 6.5-1.5S21 12 17.5 12c-3.6 0-6.5 4.3-6.5 9.5s1.5 1.5 6.5 1.5ZM49 21.5c0 5.2-2 1.5-6.5 1.5-5 0-6.5 3.7-6.5-1.5s3-9.5 6.5-9.5c3.6 0 6.5 4.3 6.5 9.5Zm-2.8 21.9c1.3-1.8 1.4-5.6-.8-5.6H13.6a4 4 0 0 0-.8 5.6 20.5 20.5 0 0 0 33.4 0Z"/></g><g id="i-18" transform="scale(.266) translate(-172,0)"><path fill-rule="evenodd" clip-rule="evenodd" d="M56.6 8.3c2 1.4 2.5 4.2 1 6.3l-29.2 42a4.5 4.5 0 0 1-7.3.1L2.4 32.2a4.5 4.5 0 1 1 7.2-5.4l15 19.6 25.7-37c1.4-2 4.2-2.5 6.3-1Z"/></g><g id="i-15" transform="scale(.266) translate(-258,0)"><path d="m14.8 27.7 21.4-16.1a4 4 0 0 0 1.6-3.2V4a2 2 0 0 0-3.2-1.6L2.3 26.8l-.6.4c-.9.6-1.7 1.2-1.7 2.1 0 .7.3 1.4.7 1.7l33.8 28a2 2 0 0 0 3.3-1.5v-5.1a4 4 0 0 0-1.4-3L14.7 30.8a2 2 0 0 1 .1-3.2ZM59.8 5v52.6a2 2 0 0 1-3.3 1.5L22.7 31a2 2 0 0 1 0-3l34-25.7c1.2-1 3.1 1 3.1 2.6Z"/></g><g id="i-12" transform="scale(.266) translate(-344,0)"><g class="stroke"><path d="M4 28h52"/><path d="M16 40V15"/><path d="M10 34V21"/><path d="M43.6 40V15"/><path d="M50 34.8V20.2"/></g></g></g></g></svg>