<svg xmlns="http://www.w3.org/2000/svg" width="350" height="350"><style>.p #bg{fill:#ddd} .c #bg{fill:#222} .p .factor,.p #text{fill:#222} .c .factor,.c #text{fill:#ddd} .sexy{fill:#e44C21} .cousin{fill:#348C47} .twin {fill:#3C4CE1} #grid .factor{r: 8} .c #icons *{fill: #ddd} .p #icons * {fill:#222} #icons .stroke *{fill:none} #icons .stroke {fill:none;stroke:#222;stroke-width:8} .c #icons .stroke{stroke:#ddd} .square{stroke-width:2;fill:none;stroke:#222;r:8} .c .square{stroke:#ddd} #icons #i-4 circle{stroke-width:20}</style><g class="c"><rect id="bg" width="100%" height="100%" /><g id="grid" transform="translate(26,26)"><g opacity=".2"></g><circle r="8" cx="23" cy="0" class="factor"><animate attributeName="opacity" values="1;.3;1" dur="20.000000s" repeatCount="indefinite"/></circle><circle r="8" cx="0" cy="23" class="factor"><animate attributeName="opacity" values="1;.3;1" dur="2.666640s" repeatCount="indefinite"/></circle><circle r="8" cx="69" cy="23" class="factor"><animate attributeName="opacity" values="1;.3;1" dur="2.222200s" repeatCount="indefinite"/></circle><circle r="8" cx="115" cy="23" class="factor"><animate attributeName="opacity" values="1;.3;1" dur="2.000000s" repeatCount="indefinite"/></circle><circle r="8" cx="0" cy="46" class="factor"><animate attributeName="opacity" values="1;.3;1" dur="1.379280s" repeatCount="indefinite"/></circle><circle r="8" cx="23" cy="46" class="factor"><animate attributeName="opacity" values="1;.3;1" dur="1.333320s" repeatCount="indefinite"/></circle><circle r="8" cx="46" cy="46" class="factor"><animate attributeName="opacity" values="1;.3;1" dur="1.290320s" repeatCount="indefinite"/></circle><circle r="8" cx="69" cy="46" class="factor"><animate attributeName="opacity" values="1;.3;1" dur="1.250000s" repeatCount="indefinite"/></circle><circle r="8" cx="115" cy="46" class="factor"><animate attributeName="opacity" values="1;.3;1" dur="1.176440s" repeatCount="indefinite"/></circle></g><g id="text" transform="translate(18,318)"><g transform="translate(0,0)"><path d="M3.3 7V4.8L7.7 2v-.2H.1V.3h9v2.4L4.7 5.5v.3h.8a3.7 3.7 0 0 1 4 3.8v.3a3.8 3.8 0 0 1-1.3 3A4.8 4.8 0 0 1 4.9 14c-.8 0-1.5-.1-2-.3a4.4 4.4 0 0 1-2.5-2.4C0 10.7 0 10.2 0 9.5v-1h1.6v1c0 .4 0 .8.2 1.2l.7 1 1 .6a3.8 3.8 0 0 0 2.5 0 3 3 0 0 0 1-.6c.3-.2.5-.5.6-.9.2-.3.2-.7.2-1v-.2c0-.8-.2-1.4-.7-1.9-.5-.4-1.2-.7-2-.7H3.4Z" /></g><g transform="translate(12,0)"><path d="M4.5 14a6 6 0 0 1-1.8-.3L1.2 13l-.9-1.2c-.2-.4-.3-1-.3-1.5v-.2A3.3 3.3 0 0 1 .8 8a3.3 3.3 0 0 1 1.7-1v-.3a3 3 0 0 1-.8-.4c-.3-.1-.5-.4-.7-.6a3 3 0 0 1-.6-1.9v-.2A3.2 3.2 0 0 1 1.4 1a5.4 5.4 0 0 1 3.1-1h.1C5.4 0 6 0 6.5.3c.5.1 1 .4 1.3.7A3.1 3.1 0 0 1 9 3.5v.2c0 .4 0 .7-.2 1 0 .4-.2.7-.5.9a3 3 0 0 1-.6.6 3 3 0 0 1-.9.4V7a3.7 3.7 0 0 1 1.8 1 3.3 3.3 0 0 1 .7 2.2v.2A3.3 3.3 0 0 1 8.1 13l-1.4.7a6 6 0 0 1-1.9.3h-.3Zm.3-1.5c.9 0 1.6-.2 2.1-.6.6-.5.8-1 .8-1.8V10c0-.8-.3-1.4-.8-1.8-.6-.5-1.3-.7-2.2-.7-1 0-1.7.2-2.3.7-.5.4-.8 1-.8 1.8v.1c0 .7.3 1.3.8 1.8.6.4 1.3.6 2.2.6h.2ZM4.7 6a3 3 0 0 0 2-.6c.4-.5.7-1 .7-1.6v-.1A2 2 0 0 0 6.6 2a3 3 0 0 0-2-.6 3 3 0 0 0-2 .6A2 2 0 0 0 2 3.7c0 .7.2 1.2.7 1.7a3 3 0 0 0 2 .6Z" /></g><g transform="translate(24,0)"><path d="M.2 7.4V.3h8.5v1.5H1.8v4.8H2l.5-.8a3.4 3.4 0 0 1 1.7-1l1.1-.2c.7 0 1.2.1 1.7.3a3.9 3.9 0 0 1 2.3 2.2c.2.6.3 1.1.3 1.8v.3c0 .7-.1 1.3-.3 1.9-.2.5-.5 1-1 1.5-.3.4-.8.8-1.4 1a5 5 0 0 1-2 .4c-.8 0-1.5-.1-2.1-.3-.6-.3-1.1-.6-1.5-1-.5-.4-.8-.9-1-1.4C.1 10.7 0 10 0 9.3V9h1.6v.4c0 1 .3 1.9.9 2.4.6.5 1.4.8 2.3.8.6 0 1 0 1.4-.3l1-.7.6-1.1L8 9V9a3 3 0 0 0-.8-2c-.2-.3-.5-.5-.9-.7a2.6 2.6 0 0 0-1.8 0 2 2 0 0 0-.6.2l-.4.4-.2.5h-3Z" /></g><g transform="translate(36,0)"><path d="M4.7.3h3.1v9.4H10v1.5H8v2.5H6.1v-2.5H0V9L4.7.3ZM1.4 9.5v.2h4.8V1H6L1.4 9.5Z" /></g></g><g id="icons" transform="translate(317,317)"><g id="i-24" transform="scale(.266) translate(-0,0)"><circle class="stroke" cx="30" cy="30" r="26"/></g></g></g></svg>