<svg xmlns="http://www.w3.org/2000/svg" width="350" height="350"><style>.p #bg{fill:#ddd} .c #bg{fill:#222} .p .factor,.p #text{fill:#222} .c .factor,.c #text{fill:#ddd} .sexy{fill:#e44C21} .cousin{fill:#348C47} .twin {fill:#3C4CE1} #grid .factor{r: 8} .c #icons *{fill: #ddd} .p #icons * {fill:#222} #icons .stroke *{fill:none} #icons .stroke {fill:none;stroke:#222;stroke-width:8} .c #icons .stroke{stroke:#ddd} .square{stroke-width:2;fill:none;stroke:#222;r:8} .c .square{stroke:#ddd} #icons #i-4 circle{stroke-width:20}</style><g class="c"><rect id="bg" width="100%" height="100%" /><g id="grid" transform="translate(26,26)"><g opacity=".2"></g><circle r="8" cx="0" cy="0" class="factor"><animate attributeName="opacity" values="1;.3;1" dur="40s" repeatCount="indefinite"/></circle><circle r="8" cx="23" cy="0" class="factor"><animate attributeName="opacity" values="1;.3;1" dur="20.000000s" repeatCount="indefinite"/></circle><circle r="8" cx="0" cy="23" class="factor"><animate attributeName="opacity" values="1;.3;1" dur="2.666640s" repeatCount="indefinite"/></circle><circle r="8" cx="46" cy="23" class="factor"><animate attributeName="opacity" values="1;.3;1" dur="2.352920s" repeatCount="indefinite"/></circle><circle r="8" cx="69" cy="23" class="factor"><animate attributeName="opacity" values="1;.3;1" dur="2.222200s" repeatCount="indefinite"/></circle><circle r="8" cx="0" cy="46" class="factor"><animate attributeName="opacity" values="1;.3;1" dur="1.379280s" repeatCount="indefinite"/></circle><circle r="8" cx="23" cy="46" class="factor"><animate attributeName="opacity" values="1;.3;1" dur="1.333320s" repeatCount="indefinite"/></circle><circle r="8" cx="46" cy="46" class="factor"><animate attributeName="opacity" values="1;.3;1" dur="1.290320s" repeatCount="indefinite"/></circle><circle r="8" cx="115" cy="46" class="factor"><animate attributeName="opacity" values="1;.3;1" dur="1.176440s" repeatCount="indefinite"/></circle><circle r="8" cx="138" cy="46" class="factor"><animate attributeName="opacity" values="1;.3;1" dur="1.142840s" repeatCount="indefinite"/></circle></g><g id="text" transform="translate(18,318)"><g transform="translate(0,0)"><path d="M4.7.3h3.1v9.4H10v1.5H8v2.5H6.1v-2.5H0V9L4.7.3ZM1.4 9.5v.2h4.8V1H6L1.4 9.5Z" /></g><g transform="translate(12,0)"><path d="M0 5.5a6 6 0 0 1 1.3-4C2 .4 3.3 0 4.7 0c1.5 0 2.7.5 3.5 1.4a6 6 0 0 1 1.3 4.1v3c0 1.8-.5 3.2-1.3 4.1-.8 1-2 1.4-3.5 1.4s-2.6-.5-3.5-1.4C.4 11.6 0 10.3 0 8.5v-3Zm4.7 7c1 0 1.8-.3 2.4-1 .5-.8.7-1.8.7-3.1V5.6L7.7 4 7 2.6l-1-.8c-.4-.2-.9-.3-1.4-.3-.5 0-1 0-1.3.3l-1 .8c-.3.4-.5.8-.6 1.3l-.2 1.7v2.8c0 1.3.3 2.3.8 3 .5.8 1.3 1.1 2.3 1.1ZM3.5 7c0-.3.1-.6.4-.9.2-.2.5-.3.8-.3.4 0 .7 0 .9.3.2.3.4.6.4.9 0 .3-.2.6-.4.9-.2.2-.5.3-.9.3-.3 0-.6 0-.8-.3-.3-.3-.4-.6-.4-.9Z" /></g><g transform="translate(24,0)"><path d="M4 12.2V1h-.2L1.6 6H0L2.5.2h3.2v12h3.8v1.4H.2v-1.5H4Z" /></g><g transform="translate(36,0)"><path d="M0 .3h9v2.3l-5.7 8.6-.6 1a2 2 0 0 0-.2 1v.5H.9V12.4a3.9 3.9 0 0 1 .7-1.3l.5-.8L7.6 2v-.2H0V.3Z" /></g></g><g id="icons" transform="translate(317,317)"><g id="i-24" transform="scale(.266) translate(-0,0)"><circle class="stroke" cx="30" cy="30" r="26"/></g><g id="i-23" transform="scale(.266) translate(-86,0)"><path d="M28.3 2.6 23 11a2 2 0 0 0 1.7 3.1H26v12h-7a6 6 0 0 1-6-6v-6h.4a2 2 0 0 0 1.8-3L13 7.4V7h-.3l-2.5-4.2a2 2 0 0 0-3.4 0l-5 8.2a2 2 0 0 0 1.8 3H5v6a14 14 0 0 0 14 14h7v22a4 4 0 1 0 8 0V34h8a14 14 0 0 0 14-14v-6h.4a2 2 0 0 0 1.8-3L56 7.4V7h-.3l-2.5-4.2a2 2 0 0 0-3.4 0l-5 8.2a2 2 0 0 0 1.8 3H48v6a6 6 0 0 1-6 6h-8V14h1.3a2 2 0 0 0 1.7-3l-5.3-8.4a2 2 0 0 0-3.4 0Z"/></g></g></g></svg>