<svg xmlns="http://www.w3.org/2000/svg" width="350" height="350"><style>.p #bg{fill:#ddd} .c #bg{fill:#222} .p .factor,.p #text{fill:#222} .c .factor,.c #text{fill:#ddd} .sexy{fill:#e44C21} .cousin{fill:#348C47} .twin {fill:#3C4CE1} #grid .factor{r: 8} .c #icons *{fill: #ddd} .p #icons * {fill:#222} #icons .stroke *{fill:none} #icons .stroke {fill:none;stroke:#222;stroke-width:8} .c #icons .stroke{stroke:#ddd} .square{stroke-width:2;fill:none;stroke:#222;r:8} .c .square{stroke:#ddd} #icons #i-4 circle{stroke-width:20}</style><g class="c"><rect id="bg" width="100%" height="100%" /><g id="grid" transform="translate(26,26)"><g opacity=".2"></g><circle r="8" cx="23" cy="0" class="factor"><animate attributeName="opacity" values="1;.3;1" dur="20.000000s" repeatCount="indefinite"/></circle><circle r="8" cx="23" cy="23" class="factor"><animate attributeName="opacity" values="1;.3;1" dur="2.500000s" repeatCount="indefinite"/></circle><circle r="8" cx="0" cy="46" class="factor"><animate attributeName="opacity" values="1;.3;1" dur="1.379280s" repeatCount="indefinite"/></circle><circle r="8" cx="23" cy="46" class="factor"><animate attributeName="opacity" values="1;.3;1" dur="1.333320s" repeatCount="indefinite"/></circle><circle r="8" cx="0" cy="69" class="factor"><animate attributeName="opacity" values="1;.3;1" dur="0.930200s" repeatCount="indefinite"/></circle><circle r="8" cx="23" cy="69" class="factor"><animate attributeName="opacity" values="1;.3;1" dur="0.909080s" repeatCount="indefinite"/></circle><circle r="8" cx="69" cy="69" class="factor"><animate attributeName="opacity" values="1;.3;1" dur="0.869560s" repeatCount="indefinite"/></circle><circle r="8" cx="0" cy="92" class="factor"><animate attributeName="opacity" values="1;.3;1" dur="0.701720s" repeatCount="indefinite"/></circle><circle r="8" cx="23" cy="92" class="factor"><animate attributeName="opacity" values="1;.3;1" dur="0.689640s" repeatCount="indefinite"/></circle><circle r="8" cx="69" cy="92" class="factor"><animate attributeName="opacity" values="1;.3;1" dur="0.666640s" repeatCount="indefinite"/></circle><circle r="8" cx="92" cy="92" class="factor"><animate attributeName="opacity" values="1;.3;1" dur="0.655720s" repeatCount="indefinite"/></circle><circle r="8" cx="115" cy="92" class="factor"><animate attributeName="opacity" values="1;.3;1" dur="0.645160s" repeatCount="indefinite"/></circle></g><g id="text" transform="translate(18,318)"><g transform="translate(0,0)"><path d="M0 .3h9v2.3l-5.7 8.6-.6 1a2 2 0 0 0-.2 1v.5H.9V12.4a3.9 3.9 0 0 1 .7-1.3l.5-.8L7.6 2v-.2H0V.3Z" /></g><g transform="translate(12,0)"><path d="M0 .3h9v2.3l-5.7 8.6-.6 1a2 2 0 0 0-.2 1v.5H.9V12.4a3.9 3.9 0 0 1 .7-1.3l.5-.8L7.6 2v-.2H0V.3Z" /></g><g transform="translate(24,0)"><path d="M4.5 14a6 6 0 0 1-1.8-.3L1.2 13l-.9-1.2c-.2-.4-.3-1-.3-1.5v-.2A3.3 3.3 0 0 1 .8 8a3.3 3.3 0 0 1 1.7-1v-.3a3 3 0 0 1-.8-.4c-.3-.1-.5-.4-.7-.6a3 3 0 0 1-.6-1.9v-.2A3.2 3.2 0 0 1 1.4 1a5.4 5.4 0 0 1 3.1-1h.1C5.4 0 6 0 6.5.3c.5.1 1 .4 1.3.7A3.1 3.1 0 0 1 9 3.5v.2c0 .4 0 .7-.2 1 0 .4-.2.7-.5.9a3 3 0 0 1-.6.6 3 3 0 0 1-.9.4V7a3.7 3.7 0 0 1 1.8 1 3.3 3.3 0 0 1 .7 2.2v.2A3.3 3.3 0 0 1 8.1 13l-1.4.7a6 6 0 0 1-1.9.3h-.3Zm.3-1.5c.9 0 1.6-.2 2.1-.6.6-.5.8-1 .8-1.8V10c0-.8-.3-1.4-.8-1.8-.6-.5-1.3-.7-2.2-.7-1 0-1.7.2-2.3.7-.5.4-.8 1-.8 1.8v.1c0 .7.3 1.3.8 1.8.6.4 1.3.6 2.2.6h.2ZM4.7 6a3 3 0 0 0 2-.6c.4-.5.7-1 .7-1.6v-.1A2 2 0 0 0 6.6 2a3 3 0 0 0-2-.6 3 3 0 0 0-2 .6A2 2 0 0 0 2 3.7c0 .7.2 1.2.7 1.7a3 3 0 0 0 2 .6Z" /></g><g transform="translate(36,0)"><path d="M4.5 14a6 6 0 0 1-1.8-.3L1.2 13l-.9-1.2c-.2-.4-.3-1-.3-1.5v-.2A3.3 3.3 0 0 1 .8 8a3.3 3.3 0 0 1 1.7-1v-.3a3 3 0 0 1-.8-.4c-.3-.1-.5-.4-.7-.6a3 3 0 0 1-.6-1.9v-.2A3.2 3.2 0 0 1 1.4 1a5.4 5.4 0 0 1 3.1-1h.1C5.4 0 6 0 6.5.3c.5.1 1 .4 1.3.7A3.1 3.1 0 0 1 9 3.5v.2c0 .4 0 .7-.2 1 0 .4-.2.7-.5.9a3 3 0 0 1-.6.6 3 3 0 0 1-.9.4V7a3.7 3.7 0 0 1 1.8 1 3.3 3.3 0 0 1 .7 2.2v.2A3.3 3.3 0 0 1 8.1 13l-1.4.7a6 6 0 0 1-1.9.3h-.3Zm.3-1.5c.9 0 1.6-.2 2.1-.6.6-.5.8-1 .8-1.8V10c0-.8-.3-1.4-.8-1.8-.6-.5-1.3-.7-2.2-.7-1 0-1.7.2-2.3.7-.5.4-.8 1-.8 1.8v.1c0 .7.3 1.3.8 1.8.6.4 1.3.6 2.2.6h.2ZM4.7 6a3 3 0 0 0 2-.6c.4-.5.7-1 .7-1.6v-.1A2 2 0 0 0 6.6 2a3 3 0 0 0-2-.6 3 3 0 0 0-2 .6A2 2 0 0 0 2 3.7c0 .7.2 1.2.7 1.7a3 3 0 0 0 2 .6Z" /></g></g><g id="icons" transform="translate(317,317)"><g id="i-24" transform="scale(.266) translate(-0,0)"><circle class="stroke" cx="30" cy="30" r="26"/></g><g id="i-23" transform="scale(.266) translate(-86,0)"><path d="M28.3 2.6 23 11a2 2 0 0 0 1.7 3.1H26v12h-7a6 6 0 0 1-6-6v-6h.4a2 2 0 0 0 1.8-3L13 7.4V7h-.3l-2.5-4.2a2 2 0 0 0-3.4 0l-5 8.2a2 2 0 0 0 1.8 3H5v6a14 14 0 0 0 14 14h7v22a4 4 0 1 0 8 0V34h8a14 14 0 0 0 14-14v-6h.4a2 2 0 0 0 1.8-3L56 7.4V7h-.3l-2.5-4.2a2 2 0 0 0-3.4 0l-5 8.2a2 2 0 0 0 1.8 3H48v6a6 6 0 0 1-6 6h-8V14h1.3a2 2 0 0 0 1.7-3l-5.3-8.4a2 2 0 0 0-3.4 0Z"/></g><g id="i-21" transform="scale(.266) translate(-172,0)"><path fill-rule="evenodd" clip-rule="evenodd" d="M42.7 1a4 4 0 0 1 4 4v50.6a4 4 0 1 1-8 0V40.2l-11.9 12a4 4 0 1 1-5.6-5.7l12.1-12.2H17a4 4 0 0 1 0-8h15.3L21.2 15a4 4 0 1 1 5.6-5.6l12 11.8V5a4 4 0 0 1 4-4Z"/></g><g id="i-20" transform="scale(.266) translate(-258,0)"><path d="M8.8 2.2a4 4 0 0 0-5.6 5.6l21.6 21.7L3.2 51.2a4 4 0 1 0 5.6 5.6l21.7-21.6 21.7 21.6a4 4 0 1 0 5.6-5.6L36.2 29.5 57.8 7.8a4 4 0 1 0-5.6-5.6L30.5 23.8 8.8 2.2Z"/></g><g id="i-19" transform="scale(.266) translate(-344,0)"><path fill-rule="evenodd" clip-rule="evenodd" d="M30 60a30 30 0 1 0 0-60 30 30 0 0 0 0 60ZM17.5 23c5 0 6.5 3.7 6.5-1.5S21 12 17.5 12c-3.6 0-6.5 4.3-6.5 9.5s1.5 1.5 6.5 1.5ZM49 21.5c0 5.2-2 1.5-6.5 1.5-5 0-6.5 3.7-6.5-1.5s3-9.5 6.5-9.5c3.6 0 6.5 4.3 6.5 9.5Zm-2.8 21.9c1.3-1.8 1.4-5.6-.8-5.6H13.6a4 4 0 0 0-.8 5.6 20.5 20.5 0 0 0 33.4 0Z"/></g></g></g></svg>