<svg xmlns="http://www.w3.org/2000/svg" width="350" height="350"><style>.p #bg{fill:#ddd} .c #bg{fill:#222} .p .factor,.p #text{fill:#222} .c .factor,.c #text{fill:#ddd} .sexy{fill:#e44C21} .cousin{fill:#348C47} .twin {fill:#3C4CE1} #grid .factor{r: 8} .c #icons *{fill: #ddd} .p #icons * {fill:#222} #icons .stroke *{fill:none} #icons .stroke {fill:none;stroke:#222;stroke-width:8} .c #icons .stroke{stroke:#ddd} .square{stroke-width:2;fill:none;stroke:#222;r:8} .c .square{stroke:#ddd} #icons #i-4 circle{stroke-width:20}</style><g class="c"><rect id="bg" width="100%" height="100%" /><g id="grid" transform="translate(26,26)"><g opacity=".2"></g><circle r="8" cx="23" cy="0" class="factor"><animate attributeName="opacity" values="1;.3;1" dur="20.000000s" repeatCount="indefinite"/></circle><circle r="8" cx="0" cy="23" class="factor"><animate attributeName="opacity" values="1;.3;1" dur="2.666640s" repeatCount="indefinite"/></circle><circle r="8" cx="23" cy="23" class="factor"><animate attributeName="opacity" values="1;.3;1" dur="2.500000s" repeatCount="indefinite"/></circle><circle r="8" cx="0" cy="46" class="factor"><animate attributeName="opacity" values="1;.3;1" dur="1.379280s" repeatCount="indefinite"/></circle><circle r="8" cx="115" cy="46" class="factor"><animate attributeName="opacity" values="1;.3;1" dur="1.176440s" repeatCount="indefinite"/></circle><circle r="8" cx="138" cy="46" class="factor"><animate attributeName="opacity" values="1;.3;1" dur="1.142840s" repeatCount="indefinite"/></circle><circle r="8" cx="184" cy="46" class="factor"><animate attributeName="opacity" values="1;.3;1" dur="1.081080s" repeatCount="indefinite"/></circle><circle r="8" cx="207" cy="46" class="factor"><animate attributeName="opacity" values="1;.3;1" dur="1.052600s" repeatCount="indefinite"/></circle><circle r="8" cx="230" cy="46" class="factor"><animate attributeName="opacity" values="1;.3;1" dur="1.025640s" repeatCount="indefinite"/></circle></g><g id="text" transform="translate(18,318)"><g transform="translate(0,0)"><path d="M4 12.2V1h-.2L1.6 6H0L2.5.2h3.2v12h3.8v1.4H.2v-1.5H4Z" /></g><g transform="translate(12,0)"><path d="M4 12.2V1h-.2L1.6 6H0L2.5.2h3.2v12h3.8v1.4H.2v-1.5H4Z" /></g><g transform="translate(24,0)"><path d="M3.3 7V4.8L7.7 2v-.2H.1V.3h9v2.4L4.7 5.5v.3h.8a3.7 3.7 0 0 1 4 3.8v.3a3.8 3.8 0 0 1-1.3 3A4.8 4.8 0 0 1 4.9 14c-.8 0-1.5-.1-2-.3a4.4 4.4 0 0 1-2.5-2.4C0 10.7 0 10.2 0 9.5v-1h1.6v1c0 .4 0 .8.2 1.2l.7 1 1 .6a3.8 3.8 0 0 0 2.5 0 3 3 0 0 0 1-.6c.3-.2.5-.5.6-.9.2-.3.2-.7.2-1v-.2c0-.8-.2-1.4-.7-1.9-.5-.4-1.2-.7-2-.7H3.4Z" /></g><g transform="translate(36,0)"><path d="M3.3 7V4.8L7.7 2v-.2H.1V.3h9v2.4L4.7 5.5v.3h.8a3.7 3.7 0 0 1 4 3.8v.3a3.8 3.8 0 0 1-1.3 3A4.8 4.8 0 0 1 4.9 14c-.8 0-1.5-.1-2-.3a4.4 4.4 0 0 1-2.5-2.4C0 10.7 0 10.2 0 9.5v-1h1.6v1c0 .4 0 .8.2 1.2l.7 1 1 .6a3.8 3.8 0 0 0 2.5 0 3 3 0 0 0 1-.6c.3-.2.5-.5.6-.9.2-.3.2-.7.2-1v-.2c0-.8-.2-1.4-.7-1.9-.5-.4-1.2-.7-2-.7H3.4Z" /></g><g transform="translate(48,0)"><path d="M4.7.3h3.1v9.4H10v1.5H8v2.5H6.1v-2.5H0V9L4.7.3ZM1.4 9.5v.2h4.8V1H6L1.4 9.5Z" /></g></g><g id="icons" transform="translate(317,317)"><g id="i-24" transform="scale(.266) translate(-0,0)"><circle class="stroke" cx="30" cy="30" r="26"/></g><g id="i-23" transform="scale(.266) translate(-86,0)"><path d="M28.3 2.6 23 11a2 2 0 0 0 1.7 3.1H26v12h-7a6 6 0 0 1-6-6v-6h.4a2 2 0 0 0 1.8-3L13 7.4V7h-.3l-2.5-4.2a2 2 0 0 0-3.4 0l-5 8.2a2 2 0 0 0 1.8 3H5v6a14 14 0 0 0 14 14h7v22a4 4 0 1 0 8 0V34h8a14 14 0 0 0 14-14v-6h.4a2 2 0 0 0 1.8-3L56 7.4V7h-.3l-2.5-4.2a2 2 0 0 0-3.4 0l-5 8.2a2 2 0 0 0 1.8 3H48v6a6 6 0 0 1-6 6h-8V14h1.3a2 2 0 0 0 1.7-3l-5.3-8.4a2 2 0 0 0-3.4 0Z"/></g><g id="i-21" transform="scale(.266) translate(-172,0)"><path fill-rule="evenodd" clip-rule="evenodd" d="M42.7 1a4 4 0 0 1 4 4v50.6a4 4 0 1 1-8 0V40.2l-11.9 12a4 4 0 1 1-5.6-5.7l12.1-12.2H17a4 4 0 0 1 0-8h15.3L21.2 15a4 4 0 1 1 5.6-5.6l12 11.8V5a4 4 0 0 1 4-4Z"/></g></g></g></svg>