<svg xmlns="http://www.w3.org/2000/svg" width="350" height="350"><style>.p #bg{fill:#ddd} .c #bg{fill:#222} .p .factor,.p #text{fill:#222} .c .factor,.c #text{fill:#ddd} .sexy{fill:#e44C21} .cousin{fill:#348C47} .twin {fill:#3C4CE1} #grid .factor{r: 8} .c #icons *{fill: #ddd} .p #icons * {fill:#222} #icons .stroke *{fill:none} #icons .stroke {fill:none;stroke:#222;stroke-width:8} .c #icons .stroke{stroke:#ddd} .square{stroke-width:2;fill:none;stroke:#222;r:8} .c .square{stroke:#ddd} #icons #i-4 circle{stroke-width:20}</style><g class="c"><rect id="bg" width="100%" height="100%" /><g id="grid" transform="translate(26,26)"><g opacity=".2"></g><circle r="8" cx="0" cy="0" class="factor"><animate attributeName="opacity" values="1;.3;1" dur="40s" repeatCount="indefinite"/></circle><circle r="8" cx="23" cy="0" class="factor"><animate attributeName="opacity" values="1;.3;1" dur="20.000000s" repeatCount="indefinite"/></circle><circle r="8" cx="0" cy="23" class="factor"><animate attributeName="opacity" values="1;.3;1" dur="2.666640s" repeatCount="indefinite"/></circle><circle r="8" cx="23" cy="23" class="factor"><animate attributeName="opacity" values="1;.3;1" dur="2.500000s" repeatCount="indefinite"/></circle><circle r="8" cx="46" cy="23" class="factor"><animate attributeName="opacity" values="1;.3;1" dur="2.352920s" repeatCount="indefinite"/></circle><circle r="8" cx="92" cy="23" class="factor"><animate attributeName="opacity" values="1;.3;1" dur="2.105240s" repeatCount="indefinite"/></circle><circle r="8" cx="0" cy="46" class="factor"><animate attributeName="opacity" values="1;.3;1" dur="1.379280s" repeatCount="indefinite"/></circle><circle r="8" cx="23" cy="46" class="factor"><animate attributeName="opacity" values="1;.3;1" dur="1.333320s" repeatCount="indefinite"/></circle><circle r="8" cx="46" cy="46" class="factor"><animate attributeName="opacity" values="1;.3;1" dur="1.290320s" repeatCount="indefinite"/></circle><circle r="8" cx="115" cy="46" class="factor"><animate attributeName="opacity" values="1;.3;1" dur="1.176440s" repeatCount="indefinite"/></circle><circle r="8" cx="161" cy="46" class="factor"><animate attributeName="opacity" values="1;.3;1" dur="1.111080s" repeatCount="indefinite"/></circle></g><g id="text" transform="translate(18,318)"><g transform="translate(0,0)"><path d="M4 12.2V1h-.2L1.6 6H0L2.5.2h3.2v12h3.8v1.4H.2v-1.5H4Z" /></g><g transform="translate(12,0)"><path d="M4 12.2V1h-.2L1.6 6H0L2.5.2h3.2v12h3.8v1.4H.2v-1.5H4Z" /></g><g transform="translate(24,0)"><path d="M.2 7.4V.3h8.5v1.5H1.8v4.8H2l.5-.8a3.4 3.4 0 0 1 1.7-1l1.1-.2c.7 0 1.2.1 1.7.3a3.9 3.9 0 0 1 2.3 2.2c.2.6.3 1.1.3 1.8v.3c0 .7-.1 1.3-.3 1.9-.2.5-.5 1-1 1.5-.3.4-.8.8-1.4 1a5 5 0 0 1-2 .4c-.8 0-1.5-.1-2.1-.3-.6-.3-1.1-.6-1.5-1-.5-.4-.8-.9-1-1.4C.1 10.7 0 10 0 9.3V9h1.6v.4c0 1 .3 1.9.9 2.4.6.5 1.4.8 2.3.8.6 0 1 0 1.4-.3l1-.7.6-1.1L8 9V9a3 3 0 0 0-.8-2c-.2-.3-.5-.5-.9-.7a2.6 2.6 0 0 0-1.8 0 2 2 0 0 0-.6.2l-.4.4-.2.5h-3Z" /></g><g transform="translate(36,0)"><path d="M9.2 12.2v1.5h-9v-2.3c0-.6 0-1.1.2-1.6.2-.4.5-.8.9-1.1.4-.4.8-.7 1.4-.9l1.8-.5c1.1-.3 2-.7 2.5-1.1.5-.5.7-1 .7-1.8l-.1-1.1-.6-1c-.2-.2-.5-.4-1-.5-.3-.2-.7-.3-1.3-.3a3 3 0 0 0-2.3.9c-.5.6-.8 1.4-.8 2.4v.9H0v-1l.3-1.8c.2-.5.5-1 1-1.5.3-.4.8-.8 1.4-1a5 5 0 0 1 2-.4c.8 0 1.5.1 2 .4.6.2 1.1.5 1.5 1 .4.3.7.7.9 1.2.2.5.2 1 .2 1.5v.4c0 1-.3 1.9-1 2.6-.6.7-1.6 1.2-3 1.6-1.2.2-2.1.6-2.7 1-.6.5-.9 1.1-.9 2v.5h7.5Z" /></g><g transform="translate(48,0)"><path d="M3.3 7V4.8L7.7 2v-.2H.1V.3h9v2.4L4.7 5.5v.3h.8a3.7 3.7 0 0 1 4 3.8v.3a3.8 3.8 0 0 1-1.3 3A4.8 4.8 0 0 1 4.9 14c-.8 0-1.5-.1-2-.3a4.4 4.4 0 0 1-2.5-2.4C0 10.7 0 10.2 0 9.5v-1h1.6v1c0 .4 0 .8.2 1.2l.7 1 1 .6a3.8 3.8 0 0 0 2.5 0 3 3 0 0 0 1-.6c.3-.2.5-.5.6-.9.2-.3.2-.7.2-1v-.2c0-.8-.2-1.4-.7-1.9-.5-.4-1.2-.7-2-.7H3.4Z" /></g></g><g id="icons" transform="translate(317,317)"><g id="i-24" transform="scale(.266) translate(-0,0)"><circle class="stroke" cx="30" cy="30" r="26"/></g><g id="i-23" transform="scale(.266) translate(-86,0)"><path d="M28.3 2.6 23 11a2 2 0 0 0 1.7 3.1H26v12h-7a6 6 0 0 1-6-6v-6h.4a2 2 0 0 0 1.8-3L13 7.4V7h-.3l-2.5-4.2a2 2 0 0 0-3.4 0l-5 8.2a2 2 0 0 0 1.8 3H5v6a14 14 0 0 0 14 14h7v22a4 4 0 1 0 8 0V34h8a14 14 0 0 0 14-14v-6h.4a2 2 0 0 0 1.8-3L56 7.4V7h-.3l-2.5-4.2a2 2 0 0 0-3.4 0l-5 8.2a2 2 0 0 0 1.8 3H48v6a6 6 0 0 1-6 6h-8V14h1.3a2 2 0 0 0 1.7-3l-5.3-8.4a2 2 0 0 0-3.4 0Z"/></g></g></g></svg>