<svg xmlns="http://www.w3.org/2000/svg" width="350" height="350"><style>.p #bg{fill:#ddd} .c #bg{fill:#222} .p .factor,.p #text{fill:#222} .c .factor,.c #text{fill:#ddd} .sexy{fill:#e44C21} .cousin{fill:#348C47} .twin {fill:#3C4CE1} #grid .factor{r: 8} .c #icons *{fill: #ddd} .p #icons * {fill:#222} #icons .stroke *{fill:none} #icons .stroke {fill:none;stroke:#222;stroke-width:8} .c #icons .stroke{stroke:#ddd} .square{stroke-width:2;fill:none;stroke:#222;r:8} .c .square{stroke:#ddd} #icons #i-4 circle{stroke-width:20}</style><g class="p"><rect id="bg" width="100%" height="100%" /><g id="grid" transform="translate(26,26)"><g opacity=".2"></g><circle r="8" cx="0" cy="23" class="twin"><animate attributeName="opacity" values="1;.3;1" dur="2.666640s" repeatCount="indefinite"/></circle><circle r="8" cx="207" cy="23" class="twin"><animate attributeName="opacity" values="1;.3;1" dur="1.666640s" repeatCount="indefinite"/></circle><circle r="8" cx="230" cy="23" class="twin"><animate attributeName="opacity" values="1;.3;1" dur="1.600000s" repeatCount="indefinite"/></circle><circle r="8" cx="253" cy="23" class="twin"><animate attributeName="opacity" values="1;.3;1" dur="1.538440s" repeatCount="indefinite"/></circle><circle r="8" cx="299" cy="23" class="twin"><animate attributeName="opacity" values="1;.3;1" dur="1.428560s" repeatCount="indefinite"/></circle><circle r="8" cx="0" cy="92" class="cousin"><animate attributeName="opacity" values="1;.3;1" dur="0.701720s" repeatCount="indefinite"/></circle><circle r="8" cx="23" cy="92" class="cousin"><animate attributeName="opacity" values="1;.3;1" dur="0.689640s" repeatCount="indefinite"/></circle><circle r="8" cx="46" cy="92" class="cousin"><animate attributeName="opacity" values="1;.3;1" dur="0.677960s" repeatCount="indefinite"/></circle><circle r="8" cx="207" cy="92" class="cousin"><animate attributeName="opacity" values="1;.3;1" dur="0.606040s" repeatCount="indefinite"/></circle><circle r="8" cx="230" cy="92" class="cousin"><animate attributeName="opacity" values="1;.3;1" dur="0.597000s" repeatCount="indefinite"/></circle><circle r="8" cx="253" cy="92" class="cousin"><animate attributeName="opacity" values="1;.3;1" dur="0.588200s" repeatCount="indefinite"/></circle><circle r="8" cx="299" cy="92" class="cousin"><animate attributeName="opacity" values="1;.3;1" dur="0.571400s" repeatCount="indefinite"/></circle><circle r="8" cx="0" cy="0" class="factor"><animate attributeName="opacity" values="1;.3;1" dur="40s" repeatCount="indefinite"/></circle><circle r="8" cx="23" cy="0" class="factor"><animate attributeName="opacity" values="1;.3;1" dur="20.000000s" repeatCount="indefinite"/></circle><circle r="8" cx="207" cy="0" class="factor"><animate attributeName="opacity" values="1;.3;1" dur="4.000000s" repeatCount="indefinite"/></circle><circle r="8" cx="230" cy="0" class="factor"><animate attributeName="opacity" values="1;.3;1" dur="3.636360s" repeatCount="indefinite"/></circle><circle r="8" cx="253" cy="0" class="factor"><animate attributeName="opacity" values="1;.3;1" dur="3.333320s" repeatCount="indefinite"/></circle><circle r="8" cx="299" cy="0" class="factor"><animate attributeName="opacity" values="1;.3;1" dur="2.857120s" repeatCount="indefinite"/></circle></g><g id="text" transform="translate(18,318)"><g transform="translate(0,0)"><path d="M4 12.2V1h-.2L1.6 6H0L2.5.2h3.2v12h3.8v1.4H.2v-1.5H4Z" /></g><g transform="translate(12,0)"><path d="M4 12.2V1h-.2L1.6 6H0L2.5.2h3.2v12h3.8v1.4H.2v-1.5H4Z" /></g><g transform="translate(24,0)"><path d="M0 .3h9v2.3l-5.7 8.6-.6 1a2 2 0 0 0-.2 1v.5H.9V12.4a3.9 3.9 0 0 1 .7-1.3l.5-.8L7.6 2v-.2H0V.3Z" /></g><g transform="translate(36,0)"><path d="M0 .3h9v2.3l-5.7 8.6-.6 1a2 2 0 0 0-.2 1v.5H.9V12.4a3.9 3.9 0 0 1 .7-1.3l.5-.8L7.6 2v-.2H0V.3Z" /></g><g transform="translate(48,0)"><path d="M1.8 9.8c0 .8.3 1.5.8 2a3 3 0 0 0 2.1.8c.5 0 .9-.1 1.2-.3.4-.1.7-.3 1-.6.3-.3.5-.6.6-1 .2-.4.2-.9.2-1.4v-2h-.2c-.3.6-.7 1-1.3 1.4-.5.3-1.2.5-1.9.5a5 5 0 0 1-1.7-.3A3.8 3.8 0 0 1 .3 6.6C.1 6.1 0 5.5 0 4.8v-.2c0-.7.1-1.3.3-1.9A4.2 4.2 0 0 1 2.8.3 5 5 0 0 1 4.7 0 4.9 4.9 0 0 1 8 1.3c.4.4.8.8 1 1.4.2.5.3 1.1.3 1.8v4.8a5 5 0 0 1-.3 2 4.3 4.3 0 0 1-2.5 2.4 5.5 5.5 0 0 1-3.6 0L1.5 13l-1-1.3-.3-1.8h1.6Zm2.9-8.4c-.5 0-1 .1-1.3.3a2.8 2.8 0 0 0-1.6 1.6l-.2 1.2v.3c0 .4 0 .8.2 1.2l.7 1 1 .5c.3.2.7.2 1.2.2.4 0 .8 0 1.2-.2a3 3 0 0 0 1-.6l.6-1c.2-.3.2-.7.2-1v-.4c0-.5 0-.9-.2-1.2-.1-.4-.3-.7-.6-1-.3-.3-.6-.5-1-.6-.3-.2-.8-.3-1.2-.3Z" /></g></g><g id="icons" transform="translate(317,317)"><g id="i-24" transform="scale(.266) translate(-0,0)"><circle cx="30" cy="30" r="30"/></g><g id="i-23" transform="scale(.266) translate(-86,0)"><path d="M28.3 2.6 23 11a2 2 0 0 0 1.7 3.1H26v12h-7a6 6 0 0 1-6-6v-6h.4a2 2 0 0 0 1.8-3L13 7.4V7h-.3l-2.5-4.2a2 2 0 0 0-3.4 0l-5 8.2a2 2 0 0 0 1.8 3H5v6a14 14 0 0 0 14 14h7v22a4 4 0 1 0 8 0V34h8a14 14 0 0 0 14-14v-6h.4a2 2 0 0 0 1.8-3L56 7.4V7h-.3l-2.5-4.2a2 2 0 0 0-3.4 0l-5 8.2a2 2 0 0 0 1.8 3H48v6a6 6 0 0 1-6 6h-8V14h1.3a2 2 0 0 0 1.7-3l-5.3-8.4a2 2 0 0 0-3.4 0Z"/></g><g id="i-15" transform="scale(.266) translate(-172,0)"><path d="m14.8 27.7 21.4-16.1a4 4 0 0 0 1.6-3.2V4a2 2 0 0 0-3.2-1.6L2.3 26.8l-.6.4c-.9.6-1.7 1.2-1.7 2.1 0 .7.3 1.4.7 1.7l33.8 28a2 2 0 0 0 3.3-1.5v-5.1a4 4 0 0 0-1.4-3L14.7 30.8a2 2 0 0 1 .1-3.2ZM59.8 5v52.6a2 2 0 0 1-3.3 1.5L22.7 31a2 2 0 0 1 0-3l34-25.7c1.2-1 3.1 1 3.1 2.6Z"/></g></g></g></svg>