<svg xmlns="http://www.w3.org/2000/svg" width="350" height="350"><style>.p #bg{fill:#ddd} .c #bg{fill:#222} .p .factor,.p #text{fill:#222} .c .factor,.c #text{fill:#ddd} .sexy{fill:#e44C21} .cousin{fill:#348C47} .twin {fill:#3C4CE1} #grid .factor{r: 8} .c #icons *{fill: #ddd} .p #icons * {fill:#222} #icons .stroke *{fill:none} #icons .stroke {fill:none;stroke:#222;stroke-width:8} .c #icons .stroke{stroke:#ddd} .square{stroke-width:2;fill:none;stroke:#222;r:8} .c .square{stroke:#ddd} #icons #i-4 circle{stroke-width:20}</style><g class="p"><rect id="bg" width="100%" height="100%" /><g id="grid" transform="translate(26,26)"><g opacity=".2"></g><circle r="8" cx="0" cy="138" class="sexy"><animate attributeName="opacity" values="1;.3;1" dur="0.470560s" repeatCount="indefinite"/></circle><circle r="8" cx="23" cy="138" class="sexy"><animate attributeName="opacity" values="1;.3;1" dur="0.465080s" repeatCount="indefinite"/></circle><circle r="8" cx="92" cy="138" class="sexy"><animate attributeName="opacity" values="1;.3;1" dur="0.449400s" repeatCount="indefinite"/></circle><circle r="8" cx="138" cy="138" class="sexy"><animate attributeName="opacity" values="1;.3;1" dur="0.439560s" repeatCount="indefinite"/></circle><circle r="8" cx="161" cy="138" class="sexy"><animate attributeName="opacity" values="1;.3;1" dur="0.434760s" repeatCount="indefinite"/></circle><circle r="8" cx="207" cy="138" class="sexy"><animate attributeName="opacity" values="1;.3;1" dur="0.425520s" repeatCount="indefinite"/></circle><circle r="8" cx="230" cy="138" class="sexy"><animate attributeName="opacity" values="1;.3;1" dur="0.421040s" repeatCount="indefinite"/></circle><circle r="8" cx="253" cy="138" class="sexy"><animate attributeName="opacity" values="1;.3;1" dur="0.416640s" repeatCount="indefinite"/></circle><circle r="8" cx="299" cy="138" class="sexy"><animate attributeName="opacity" values="1;.3;1" dur="0.408160s" repeatCount="indefinite"/></circle><circle r="8" cx="0" cy="0" class="factor"><animate attributeName="opacity" values="1;.3;1" dur="40s" repeatCount="indefinite"/></circle><circle r="8" cx="46" cy="0" class="factor"><animate attributeName="opacity" values="1;.3;1" dur="13.333320s" repeatCount="indefinite"/></circle><circle r="8" cx="69" cy="0" class="factor"><animate attributeName="opacity" values="1;.3;1" dur="10.000000s" repeatCount="indefinite"/></circle><circle r="8" cx="138" cy="0" class="factor"><animate attributeName="opacity" values="1;.3;1" dur="5.714280s" repeatCount="indefinite"/></circle><circle r="8" cx="161" cy="0" class="factor"><animate attributeName="opacity" values="1;.3;1" dur="5.000000s" repeatCount="indefinite"/></circle><circle r="8" cx="207" cy="0" class="factor"><animate attributeName="opacity" values="1;.3;1" dur="4.000000s" repeatCount="indefinite"/></circle><circle r="8" cx="230" cy="0" class="factor"><animate attributeName="opacity" values="1;.3;1" dur="3.636360s" repeatCount="indefinite"/></circle><circle r="8" cx="253" cy="0" class="factor"><animate attributeName="opacity" values="1;.3;1" dur="3.333320s" repeatCount="indefinite"/></circle><circle r="8" cx="299" cy="0" class="factor"><animate attributeName="opacity" values="1;.3;1" dur="2.857120s" repeatCount="indefinite"/></circle></g><g id="text" transform="translate(18,318)"><g transform="translate(0,0)"><path d="M4 12.2V1h-.2L1.6 6H0L2.5.2h3.2v12h3.8v1.4H.2v-1.5H4Z" /></g><g transform="translate(12,0)"><path d="M4 12.2V1h-.2L1.6 6H0L2.5.2h3.2v12h3.8v1.4H.2v-1.5H4Z" /></g><g transform="translate(24,0)"><path d="M1.8 9.8c0 .8.3 1.5.8 2a3 3 0 0 0 2.1.8c.5 0 .9-.1 1.2-.3.4-.1.7-.3 1-.6.3-.3.5-.6.6-1 .2-.4.2-.9.2-1.4v-2h-.2c-.3.6-.7 1-1.3 1.4-.5.3-1.2.5-1.9.5a5 5 0 0 1-1.7-.3A3.8 3.8 0 0 1 .3 6.6C.1 6.1 0 5.5 0 4.8v-.2c0-.7.1-1.3.3-1.9A4.2 4.2 0 0 1 2.8.3 5 5 0 0 1 4.7 0 4.9 4.9 0 0 1 8 1.3c.4.4.8.8 1 1.4.2.5.3 1.1.3 1.8v4.8a5 5 0 0 1-.3 2 4.3 4.3 0 0 1-2.5 2.4 5.5 5.5 0 0 1-3.6 0L1.5 13l-1-1.3-.3-1.8h1.6Zm2.9-8.4c-.5 0-1 .1-1.3.3a2.8 2.8 0 0 0-1.6 1.6l-.2 1.2v.3c0 .4 0 .8.2 1.2l.7 1 1 .5c.3.2.7.2 1.2.2.4 0 .8 0 1.2-.2a3 3 0 0 0 1-.6l.6-1c.2-.3.2-.7.2-1v-.4c0-.5 0-.9-.2-1.2-.1-.4-.3-.7-.6-1-.3-.3-.6-.5-1-.6-.3-.2-.8-.3-1.2-.3Z" /></g><g transform="translate(36,0)"><path d="M4.5 14a6 6 0 0 1-1.8-.3L1.2 13l-.9-1.2c-.2-.4-.3-1-.3-1.5v-.2A3.3 3.3 0 0 1 .8 8a3.3 3.3 0 0 1 1.7-1v-.3a3 3 0 0 1-.8-.4c-.3-.1-.5-.4-.7-.6a3 3 0 0 1-.6-1.9v-.2A3.2 3.2 0 0 1 1.4 1a5.4 5.4 0 0 1 3.1-1h.1C5.4 0 6 0 6.5.3c.5.1 1 .4 1.3.7A3.1 3.1 0 0 1 9 3.5v.2c0 .4 0 .7-.2 1 0 .4-.2.7-.5.9a3 3 0 0 1-.6.6 3 3 0 0 1-.9.4V7a3.7 3.7 0 0 1 1.8 1 3.3 3.3 0 0 1 .7 2.2v.2A3.3 3.3 0 0 1 8.1 13l-1.4.7a6 6 0 0 1-1.9.3h-.3Zm.3-1.5c.9 0 1.6-.2 2.1-.6.6-.5.8-1 .8-1.8V10c0-.8-.3-1.4-.8-1.8-.6-.5-1.3-.7-2.2-.7-1 0-1.7.2-2.3.7-.5.4-.8 1-.8 1.8v.1c0 .7.3 1.3.8 1.8.6.4 1.3.6 2.2.6h.2ZM4.7 6a3 3 0 0 0 2-.6c.4-.5.7-1 .7-1.6v-.1A2 2 0 0 0 6.6 2a3 3 0 0 0-2-.6 3 3 0 0 0-2 .6A2 2 0 0 0 2 3.7c0 .7.2 1.2.7 1.7a3 3 0 0 0 2 .6Z" /></g><g transform="translate(48,0)"><path d="M4 12.2V1h-.2L1.6 6H0L2.5.2h3.2v12h3.8v1.4H.2v-1.5H4Z" /></g></g><g id="icons" transform="translate(317,317)"><g id="i-24" transform="scale(.266) translate(-0,0)"><circle cx="30" cy="30" r="30"/></g><g id="i-18" transform="scale(.266) translate(-86,0)"><path fill-rule="evenodd" clip-rule="evenodd" d="M56.6 8.3c2 1.4 2.5 4.2 1 6.3l-29.2 42a4.5 4.5 0 0 1-7.3.1L2.4 32.2a4.5 4.5 0 1 1 7.2-5.4l15 19.6 25.7-37c1.4-2 4.2-2.5 6.3-1Z"/></g><g id="i-15" transform="scale(.266) translate(-172,0)"><path d="m14.8 27.7 21.4-16.1a4 4 0 0 0 1.6-3.2V4a2 2 0 0 0-3.2-1.6L2.3 26.8l-.6.4c-.9.6-1.7 1.2-1.7 2.1 0 .7.3 1.4.7 1.7l33.8 28a2 2 0 0 0 3.3-1.5v-5.1a4 4 0 0 0-1.4-3L14.7 30.8a2 2 0 0 1 .1-3.2ZM59.8 5v52.6a2 2 0 0 1-3.3 1.5L22.7 31a2 2 0 0 1 0-3l34-25.7c1.2-1 3.1 1 3.1 2.6Z"/></g><g id="i-12" transform="scale(.266) translate(-258,0)"><g class="stroke"><path d="M4 28h52"/><path d="M16 40V15"/><path d="M10 34V21"/><path d="M43.6 40V15"/><path d="M50 34.8V20.2"/></g></g></g></g></svg>