<svg xmlns="http://www.w3.org/2000/svg" width="350" height="350"><style>.p #bg{fill:#ddd} .c #bg{fill:#222} .p .factor,.p #text{fill:#222} .c .factor,.c #text{fill:#ddd} .sexy{fill:#e44C21} .cousin{fill:#348C47} .twin {fill:#3C4CE1} #grid .factor{r: 8} .c #icons *{fill: #ddd} .p #icons * {fill:#222} #icons .stroke *{fill:none} #icons .stroke {fill:none;stroke:#222;stroke-width:8} .c #icons .stroke{stroke:#ddd} .square{stroke-width:2;fill:none;stroke:#222;r:8} .c .square{stroke:#ddd} #icons #i-4 circle{stroke-width:20}</style><g class="p"><rect id="bg" width="100%" height="100%" /><g id="grid" transform="translate(26,26)"><g opacity=".2"></g><circle r="8" cx="0" cy="69" class="cousin"><animate attributeName="opacity" values="1;.3;1" dur="0.930200s" repeatCount="indefinite"/></circle><circle r="8" cx="23" cy="69" class="cousin"><animate attributeName="opacity" values="1;.3;1" dur="0.909080s" repeatCount="indefinite"/></circle><circle r="8" cx="46" cy="69" class="cousin"><animate attributeName="opacity" values="1;.3;1" dur="0.888880s" repeatCount="indefinite"/></circle><circle r="8" cx="69" cy="69" class="cousin"><animate attributeName="opacity" values="1;.3;1" dur="0.869560s" repeatCount="indefinite"/></circle><circle r="8" cx="115" cy="69" class="cousin"><animate attributeName="opacity" values="1;.3;1" dur="0.833320s" repeatCount="indefinite"/></circle><circle r="8" cx="161" cy="69" class="cousin"><animate attributeName="opacity" values="1;.3;1" dur="0.800000s" repeatCount="indefinite"/></circle><circle r="8" cx="184" cy="69" class="cousin"><animate attributeName="opacity" values="1;.3;1" dur="0.784280s" repeatCount="indefinite"/></circle><circle r="8" cx="253" cy="69" class="cousin"><animate attributeName="opacity" values="1;.3;1" dur="0.740720s" repeatCount="indefinite"/></circle><circle r="8" cx="276" cy="69" class="cousin"><animate attributeName="opacity" values="1;.3;1" dur="0.727240s" repeatCount="indefinite"/></circle><circle r="8" cx="299" cy="69" class="cousin"><animate attributeName="opacity" values="1;.3;1" dur="0.714280s" repeatCount="indefinite"/></circle><circle r="8" cx="0" cy="0" class="factor"><animate attributeName="opacity" values="1;.3;1" dur="40s" repeatCount="indefinite"/></circle><circle r="8" cx="23" cy="0" class="factor"><animate attributeName="opacity" values="1;.3;1" dur="20.000000s" repeatCount="indefinite"/></circle><circle r="8" cx="92" cy="0" class="factor"><animate attributeName="opacity" values="1;.3;1" dur="8.000000s" repeatCount="indefinite"/></circle><circle r="8" cx="115" cy="0" class="factor"><animate attributeName="opacity" values="1;.3;1" dur="6.666640s" repeatCount="indefinite"/></circle><circle r="8" cx="161" cy="0" class="factor"><animate attributeName="opacity" values="1;.3;1" dur="5.000000s" repeatCount="indefinite"/></circle><circle r="8" cx="184" cy="0" class="factor"><animate attributeName="opacity" values="1;.3;1" dur="4.444440s" repeatCount="indefinite"/></circle><circle r="8" cx="253" cy="0" class="factor"><animate attributeName="opacity" values="1;.3;1" dur="3.333320s" repeatCount="indefinite"/></circle><circle r="8" cx="276" cy="0" class="factor"><animate attributeName="opacity" values="1;.3;1" dur="3.076920s" repeatCount="indefinite"/></circle><circle r="8" cx="299" cy="0" class="factor"><animate attributeName="opacity" values="1;.3;1" dur="2.857120s" repeatCount="indefinite"/></circle></g><g id="text" transform="translate(18,318)"><g transform="translate(0,0)"><path d="M4 12.2V1h-.2L1.6 6H0L2.5.2h3.2v12h3.8v1.4H.2v-1.5H4Z" /></g><g transform="translate(12,0)"><path d="M4.7.3h3.1v9.4H10v1.5H8v2.5H6.1v-2.5H0V9L4.7.3ZM1.4 9.5v.2h4.8V1H6L1.4 9.5Z" /></g><g transform="translate(24,0)"><path d="M0 .3h9v2.3l-5.7 8.6-.6 1a2 2 0 0 0-.2 1v.5H.9V12.4a3.9 3.9 0 0 1 .7-1.3l.5-.8L7.6 2v-.2H0V.3Z" /></g><g transform="translate(36,0)"><path d="M0 .3h9v2.3l-5.7 8.6-.6 1a2 2 0 0 0-.2 1v.5H.9V12.4a3.9 3.9 0 0 1 .7-1.3l.5-.8L7.6 2v-.2H0V.3Z" /></g><g transform="translate(48,0)"><path d="M4 12.2V1h-.2L1.6 6H0L2.5.2h3.2v12h3.8v1.4H.2v-1.5H4Z" /></g></g><g id="icons" transform="translate(317,317)"><g id="i-24" transform="scale(.266) translate(-0,0)"><circle cx="30" cy="30" r="30"/></g></g></g></svg>