<svg xmlns="http://www.w3.org/2000/svg" width="350" height="350"><style>.p #bg{fill:#ddd} .c #bg{fill:#222} .p .factor,.p #text{fill:#222} .c .factor,.c #text{fill:#ddd} .sexy{fill:#e44C21} .cousin{fill:#348C47} .twin {fill:#3C4CE1} #grid .factor{r: 8} .c #icons *{fill: #ddd} .p #icons * {fill:#222} #icons .stroke *{fill:none} #icons .stroke {fill:none;stroke:#222;stroke-width:8} .c #icons .stroke{stroke:#ddd} .square{stroke-width:2;fill:none;stroke:#222;r:8} .c .square{stroke:#ddd} #icons #i-4 circle{stroke-width:20}</style><g class="c"><rect id="bg" width="100%" height="100%" /><g id="grid" transform="translate(26,26)"><g opacity=".2"></g><circle r="8" cx="23" cy="0" class="factor"><animate attributeName="opacity" values="1;.3;1" dur="20.000000s" repeatCount="indefinite"/></circle><circle r="8" cx="23" cy="23" class="factor"><animate attributeName="opacity" values="1;.3;1" dur="2.500000s" repeatCount="indefinite"/></circle><circle r="8" cx="23" cy="46" class="factor"><animate attributeName="opacity" values="1;.3;1" dur="1.333320s" repeatCount="indefinite"/></circle><circle r="8" cx="0" cy="69" class="factor"><animate attributeName="opacity" values="1;.3;1" dur="0.930200s" repeatCount="indefinite"/></circle><circle r="8" cx="23" cy="69" class="factor"><animate attributeName="opacity" values="1;.3;1" dur="0.909080s" repeatCount="indefinite"/></circle><circle r="8" cx="0" cy="92" class="factor"><animate attributeName="opacity" values="1;.3;1" dur="0.701720s" repeatCount="indefinite"/></circle><circle r="8" cx="23" cy="92" class="factor"><animate attributeName="opacity" values="1;.3;1" dur="0.689640s" repeatCount="indefinite"/></circle><circle r="8" cx="46" cy="92" class="factor"><animate attributeName="opacity" values="1;.3;1" dur="0.677960s" repeatCount="indefinite"/></circle><circle r="8" cx="92" cy="92" class="factor"><animate attributeName="opacity" values="1;.3;1" dur="0.655720s" repeatCount="indefinite"/></circle><circle r="8" cx="0" cy="115" class="factor"><animate attributeName="opacity" values="1;.3;1" dur="0.563360s" repeatCount="indefinite"/></circle><circle r="8" cx="46" cy="115" class="factor"><animate attributeName="opacity" values="1;.3;1" dur="0.547920s" repeatCount="indefinite"/></circle><circle r="8" cx="69" cy="115" class="factor"><animate attributeName="opacity" values="1;.3;1" dur="0.540520s" repeatCount="indefinite"/></circle><circle r="8" cx="92" cy="115" class="factor"><animate attributeName="opacity" values="1;.3;1" dur="0.533320s" repeatCount="indefinite"/></circle></g><g id="text" transform="translate(18,318)"><g transform="translate(0,0)"><path d="M4 12.2V1h-.2L1.6 6H0L2.5.2h3.2v12h3.8v1.4H.2v-1.5H4Z" /></g><g transform="translate(12,0)"><path d="M7.5 4.2c0-.8-.3-1.5-.8-2s-1.2-.8-2.1-.8l-1.2.3c-.4.1-.7.3-1 .6a3.2 3.2 0 0 0-.8 2.4v2h.2c.4-.6.8-1 1.4-1.4.5-.3 1.2-.5 1.9-.5.6 0 1.2.1 1.7.4.5.1 1 .4 1.3.8l1 1.4.2 1.9v.2A4.5 4.5 0 0 1 8 12.8c-.4.3-.9.7-1.5.9a5.2 5.2 0 0 1-3.7 0c-.6-.2-1-.5-1.5-1-.4-.3-.7-.8-1-1.3L0 9.6v-5c0-.7.1-1.3.4-1.9.2-.5.5-1 1-1.4.4-.4.9-.8 1.4-1a5.4 5.4 0 0 1 3.6 0 4 4 0 0 1 2.7 3.9H7.5Zm-2.8 8.4c.4 0 .9 0 1.2-.2l1-.7c.3-.2.5-.6.6-1 .2-.3.2-.7.2-1.2v-.2c0-.4 0-.9-.2-1.2a2.7 2.7 0 0 0-1.6-1.6c-.4-.2-.8-.2-1.2-.2a3.1 3.1 0 0 0-2.2.8 3 3 0 0 0-.9 2.1v.4c0 .4 0 .8.2 1.2a2.7 2.7 0 0 0 1.6 1.6l1.3.2Z" /></g><g transform="translate(24,0)"><path d="M0 5.5a6 6 0 0 1 1.3-4C2 .4 3.3 0 4.7 0c1.5 0 2.7.5 3.5 1.4a6 6 0 0 1 1.3 4.1v3c0 1.8-.5 3.2-1.3 4.1-.8 1-2 1.4-3.5 1.4s-2.6-.5-3.5-1.4C.4 11.6 0 10.3 0 8.5v-3Zm4.7 7c1 0 1.8-.3 2.4-1 .5-.8.7-1.8.7-3.1V5.6L7.7 4 7 2.6l-1-.8c-.4-.2-.9-.3-1.4-.3-.5 0-1 0-1.3.3l-1 .8c-.3.4-.5.8-.6 1.3l-.2 1.7v2.8c0 1.3.3 2.3.8 3 .5.8 1.3 1.1 2.3 1.1ZM3.5 7c0-.3.1-.6.4-.9.2-.2.5-.3.8-.3.4 0 .7 0 .9.3.2.3.4.6.4.9 0 .3-.2.6-.4.9-.2.2-.5.3-.9.3-.3 0-.6 0-.8-.3-.3-.3-.4-.6-.4-.9Z" /></g><g transform="translate(36,0)"><path d="M0 5.5a6 6 0 0 1 1.3-4C2 .4 3.3 0 4.7 0c1.5 0 2.7.5 3.5 1.4a6 6 0 0 1 1.3 4.1v3c0 1.8-.5 3.2-1.3 4.1-.8 1-2 1.4-3.5 1.4s-2.6-.5-3.5-1.4C.4 11.6 0 10.3 0 8.5v-3Zm4.7 7c1 0 1.8-.3 2.4-1 .5-.8.7-1.8.7-3.1V5.6L7.7 4 7 2.6l-1-.8c-.4-.2-.9-.3-1.4-.3-.5 0-1 0-1.3.3l-1 .8c-.3.4-.5.8-.6 1.3l-.2 1.7v2.8c0 1.3.3 2.3.8 3 .5.8 1.3 1.1 2.3 1.1ZM3.5 7c0-.3.1-.6.4-.9.2-.2.5-.3.8-.3.4 0 .7 0 .9.3.2.3.4.6.4.9 0 .3-.2.6-.4.9-.2.2-.5.3-.9.3-.3 0-.6 0-.8-.3-.3-.3-.4-.6-.4-.9Z" /></g><g transform="translate(48,0)"><path d="M4.5 14a6 6 0 0 1-1.8-.3L1.2 13l-.9-1.2c-.2-.4-.3-1-.3-1.5v-.2A3.3 3.3 0 0 1 .8 8a3.3 3.3 0 0 1 1.7-1v-.3a3 3 0 0 1-.8-.4c-.3-.1-.5-.4-.7-.6a3 3 0 0 1-.6-1.9v-.2A3.2 3.2 0 0 1 1.4 1a5.4 5.4 0 0 1 3.1-1h.1C5.4 0 6 0 6.5.3c.5.1 1 .4 1.3.7A3.1 3.1 0 0 1 9 3.5v.2c0 .4 0 .7-.2 1 0 .4-.2.7-.5.9a3 3 0 0 1-.6.6 3 3 0 0 1-.9.4V7a3.7 3.7 0 0 1 1.8 1 3.3 3.3 0 0 1 .7 2.2v.2A3.3 3.3 0 0 1 8.1 13l-1.4.7a6 6 0 0 1-1.9.3h-.3Zm.3-1.5c.9 0 1.6-.2 2.1-.6.6-.5.8-1 .8-1.8V10c0-.8-.3-1.4-.8-1.8-.6-.5-1.3-.7-2.2-.7-1 0-1.7.2-2.3.7-.5.4-.8 1-.8 1.8v.1c0 .7.3 1.3.8 1.8.6.4 1.3.6 2.2.6h.2ZM4.7 6a3 3 0 0 0 2-.6c.4-.5.7-1 .7-1.6v-.1A2 2 0 0 0 6.6 2a3 3 0 0 0-2-.6 3 3 0 0 0-2 .6A2 2 0 0 0 2 3.7c0 .7.2 1.2.7 1.7a3 3 0 0 0 2 .6Z" /></g></g><g id="icons" transform="translate(317,317)"><g id="i-24" transform="scale(.266) translate(-0,0)"><circle class="stroke" cx="30" cy="30" r="26"/></g><g id="i-21" transform="scale(.266) translate(-86,0)"><path fill-rule="evenodd" clip-rule="evenodd" d="M42.7 1a4 4 0 0 1 4 4v50.6a4 4 0 1 1-8 0V40.2l-11.9 12a4 4 0 1 1-5.6-5.7l12.1-12.2H17a4 4 0 0 1 0-8h15.3L21.2 15a4 4 0 1 1 5.6-5.6l12 11.8V5a4 4 0 0 1 4-4Z"/></g></g></g></svg>