<svg xmlns="http://www.w3.org/2000/svg" width="350" height="350"><style>.p #bg{fill:#ddd} .c #bg{fill:#222} .p .factor,.p #text{fill:#222} .c .factor,.c #text{fill:#ddd} .sexy{fill:#e44C21} .cousin{fill:#348C47} .twin {fill:#3C4CE1} #grid .factor{r: 8} .c #icons *{fill: #ddd} .p #icons * {fill:#222} #icons .stroke *{fill:none} #icons .stroke {fill:none;stroke:#222;stroke-width:8} .c #icons .stroke{stroke:#ddd} .square{stroke-width:2;fill:none;stroke:#222;r:8} .c .square{stroke:#ddd} #icons #i-4 circle{stroke-width:20}</style><g class="p"><rect id="bg" width="100%" height="100%" /><g id="grid" transform="translate(26,26)"><g opacity=".2"></g><circle r="8" cx="0" cy="69" class="cousin"><animate attributeName="opacity" values="1;.3;1" dur="0.930200s" repeatCount="indefinite"/></circle><circle r="8" cx="46" cy="69" class="cousin"><animate attributeName="opacity" values="1;.3;1" dur="0.888880s" repeatCount="indefinite"/></circle><circle r="8" cx="69" cy="69" class="cousin"><animate attributeName="opacity" values="1;.3;1" dur="0.869560s" repeatCount="indefinite"/></circle><circle r="8" cx="92" cy="69" class="cousin"><animate attributeName="opacity" values="1;.3;1" dur="0.851040s" repeatCount="indefinite"/></circle><circle r="8" cx="115" cy="69" class="cousin"><animate attributeName="opacity" values="1;.3;1" dur="0.833320s" repeatCount="indefinite"/></circle><circle r="8" cx="184" cy="69" class="cousin"><animate attributeName="opacity" values="1;.3;1" dur="0.784280s" repeatCount="indefinite"/></circle><circle r="8" cx="207" cy="69" class="cousin"><animate attributeName="opacity" values="1;.3;1" dur="0.769200s" repeatCount="indefinite"/></circle><circle r="8" cx="230" cy="69" class="cousin"><animate attributeName="opacity" values="1;.3;1" dur="0.754680s" repeatCount="indefinite"/></circle><circle r="8" cx="253" cy="69" class="cousin"><animate attributeName="opacity" values="1;.3;1" dur="0.740720s" repeatCount="indefinite"/></circle><circle r="8" cx="276" cy="69" class="cousin"><animate attributeName="opacity" values="1;.3;1" dur="0.727240s" repeatCount="indefinite"/></circle><circle r="8" cx="299" cy="69" class="cousin"><animate attributeName="opacity" values="1;.3;1" dur="0.714280s" repeatCount="indefinite"/></circle><circle r="8" cx="0" cy="115" class="sexy"><animate attributeName="opacity" values="1;.3;1" dur="0.563360s" repeatCount="indefinite"/></circle><circle r="8" cx="23" cy="115" class="sexy"><animate attributeName="opacity" values="1;.3;1" dur="0.555520s" repeatCount="indefinite"/></circle><circle r="8" cx="69" cy="115" class="sexy"><animate attributeName="opacity" values="1;.3;1" dur="0.540520s" repeatCount="indefinite"/></circle><circle r="8" cx="92" cy="115" class="sexy"><animate attributeName="opacity" values="1;.3;1" dur="0.533320s" repeatCount="indefinite"/></circle><circle r="8" cx="115" cy="115" class="sexy"><animate attributeName="opacity" values="1;.3;1" dur="0.526280s" repeatCount="indefinite"/></circle><circle r="8" cx="184" cy="115" class="sexy"><animate attributeName="opacity" values="1;.3;1" dur="0.506320s" repeatCount="indefinite"/></circle><circle r="8" cx="207" cy="115" class="sexy"><animate attributeName="opacity" values="1;.3;1" dur="0.500000s" repeatCount="indefinite"/></circle><circle r="8" cx="230" cy="115" class="sexy"><animate attributeName="opacity" values="1;.3;1" dur="0.493800s" repeatCount="indefinite"/></circle><circle r="8" cx="253" cy="115" class="sexy"><animate attributeName="opacity" values="1;.3;1" dur="0.487800s" repeatCount="indefinite"/></circle><circle r="8" cx="276" cy="115" class="sexy"><animate attributeName="opacity" values="1;.3;1" dur="0.481920s" repeatCount="indefinite"/></circle><circle r="8" cx="299" cy="115" class="sexy"><animate attributeName="opacity" values="1;.3;1" dur="0.476160s" repeatCount="indefinite"/></circle><circle r="8" cx="0" cy="0" class="factor"><animate attributeName="opacity" values="1;.3;1" dur="40s" repeatCount="indefinite"/></circle><circle r="8" cx="138" cy="0" class="factor"><animate attributeName="opacity" values="1;.3;1" dur="5.714280s" repeatCount="indefinite"/></circle><circle r="8" cx="184" cy="0" class="factor"><animate attributeName="opacity" values="1;.3;1" dur="4.444440s" repeatCount="indefinite"/></circle><circle r="8" cx="207" cy="0" class="factor"><animate attributeName="opacity" values="1;.3;1" dur="4.000000s" repeatCount="indefinite"/></circle><circle r="8" cx="230" cy="0" class="factor"><animate attributeName="opacity" values="1;.3;1" dur="3.636360s" repeatCount="indefinite"/></circle><circle r="8" cx="253" cy="0" class="factor"><animate attributeName="opacity" values="1;.3;1" dur="3.333320s" repeatCount="indefinite"/></circle><circle r="8" cx="276" cy="0" class="factor"><animate attributeName="opacity" values="1;.3;1" dur="3.076920s" repeatCount="indefinite"/></circle><circle r="8" cx="299" cy="0" class="factor"><animate attributeName="opacity" values="1;.3;1" dur="2.857120s" repeatCount="indefinite"/></circle></g><g id="text" transform="translate(18,318)"><g transform="translate(0,0)"><path d="M4 12.2V1h-.2L1.6 6H0L2.5.2h3.2v12h3.8v1.4H.2v-1.5H4Z" /></g><g transform="translate(12,0)"><path d="M7.5 4.2c0-.8-.3-1.5-.8-2s-1.2-.8-2.1-.8l-1.2.3c-.4.1-.7.3-1 .6a3.2 3.2 0 0 0-.8 2.4v2h.2c.4-.6.8-1 1.4-1.4.5-.3 1.2-.5 1.9-.5.6 0 1.2.1 1.7.4.5.1 1 .4 1.3.8l1 1.4.2 1.9v.2A4.5 4.5 0 0 1 8 12.8c-.4.3-.9.7-1.5.9a5.2 5.2 0 0 1-3.7 0c-.6-.2-1-.5-1.5-1-.4-.3-.7-.8-1-1.3L0 9.6v-5c0-.7.1-1.3.4-1.9.2-.5.5-1 1-1.4.4-.4.9-.8 1.4-1a5.4 5.4 0 0 1 3.6 0 4 4 0 0 1 2.7 3.9H7.5Zm-2.8 8.4c.4 0 .9 0 1.2-.2l1-.7c.3-.2.5-.6.6-1 .2-.3.2-.7.2-1.2v-.2c0-.4 0-.9-.2-1.2a2.7 2.7 0 0 0-1.6-1.6c-.4-.2-.8-.2-1.2-.2a3.1 3.1 0 0 0-2.2.8 3 3 0 0 0-.9 2.1v.4c0 .4 0 .8.2 1.2a2.7 2.7 0 0 0 1.6 1.6l1.3.2Z" /></g><g transform="translate(24,0)"><path d="M4 12.2V1h-.2L1.6 6H0L2.5.2h3.2v12h3.8v1.4H.2v-1.5H4Z" /></g><g transform="translate(36,0)"><path d="M1.8 9.8c0 .8.3 1.5.8 2a3 3 0 0 0 2.1.8c.5 0 .9-.1 1.2-.3.4-.1.7-.3 1-.6.3-.3.5-.6.6-1 .2-.4.2-.9.2-1.4v-2h-.2c-.3.6-.7 1-1.3 1.4-.5.3-1.2.5-1.9.5a5 5 0 0 1-1.7-.3A3.8 3.8 0 0 1 .3 6.6C.1 6.1 0 5.5 0 4.8v-.2c0-.7.1-1.3.3-1.9A4.2 4.2 0 0 1 2.8.3 5 5 0 0 1 4.7 0 4.9 4.9 0 0 1 8 1.3c.4.4.8.8 1 1.4.2.5.3 1.1.3 1.8v4.8a5 5 0 0 1-.3 2 4.3 4.3 0 0 1-2.5 2.4 5.5 5.5 0 0 1-3.6 0L1.5 13l-1-1.3-.3-1.8h1.6Zm2.9-8.4c-.5 0-1 .1-1.3.3a2.8 2.8 0 0 0-1.6 1.6l-.2 1.2v.3c0 .4 0 .8.2 1.2l.7 1 1 .5c.3.2.7.2 1.2.2.4 0 .8 0 1.2-.2a3 3 0 0 0 1-.6l.6-1c.2-.3.2-.7.2-1v-.4c0-.5 0-.9-.2-1.2-.1-.4-.3-.7-.6-1-.3-.3-.6-.5-1-.6-.3-.2-.8-.3-1.2-.3Z" /></g><g transform="translate(48,0)"><path d="M3.3 7V4.8L7.7 2v-.2H.1V.3h9v2.4L4.7 5.5v.3h.8a3.7 3.7 0 0 1 4 3.8v.3a3.8 3.8 0 0 1-1.3 3A4.8 4.8 0 0 1 4.9 14c-.8 0-1.5-.1-2-.3a4.4 4.4 0 0 1-2.5-2.4C0 10.7 0 10.2 0 9.5v-1h1.6v1c0 .4 0 .8.2 1.2l.7 1 1 .6a3.8 3.8 0 0 0 2.5 0 3 3 0 0 0 1-.6c.3-.2.5-.5.6-.9.2-.3.2-.7.2-1v-.2c0-.8-.2-1.4-.7-1.9-.5-.4-1.2-.7-2-.7H3.4Z" /></g></g><g id="icons" transform="translate(317,317)"><g id="i-24" transform="scale(.266) translate(-0,0)"><circle cx="30" cy="30" r="30"/></g><g id="i-23" transform="scale(.266) translate(-86,0)"><path d="M28.3 2.6 23 11a2 2 0 0 0 1.7 3.1H26v12h-7a6 6 0 0 1-6-6v-6h.4a2 2 0 0 0 1.8-3L13 7.4V7h-.3l-2.5-4.2a2 2 0 0 0-3.4 0l-5 8.2a2 2 0 0 0 1.8 3H5v6a14 14 0 0 0 14 14h7v22a4 4 0 1 0 8 0V34h8a14 14 0 0 0 14-14v-6h.4a2 2 0 0 0 1.8-3L56 7.4V7h-.3l-2.5-4.2a2 2 0 0 0-3.4 0l-5 8.2a2 2 0 0 0 1.8 3H48v6a6 6 0 0 1-6 6h-8V14h1.3a2 2 0 0 0 1.7-3l-5.3-8.4a2 2 0 0 0-3.4 0Z"/></g><g id="i-15" transform="scale(.266) translate(-172,0)"><path d="m14.8 27.7 21.4-16.1a4 4 0 0 0 1.6-3.2V4a2 2 0 0 0-3.2-1.6L2.3 26.8l-.6.4c-.9.6-1.7 1.2-1.7 2.1 0 .7.3 1.4.7 1.7l33.8 28a2 2 0 0 0 3.3-1.5v-5.1a4 4 0 0 0-1.4-3L14.7 30.8a2 2 0 0 1 .1-3.2ZM59.8 5v52.6a2 2 0 0 1-3.3 1.5L22.7 31a2 2 0 0 1 0-3l34-25.7c1.2-1 3.1 1 3.1 2.6Z"/></g></g></g></svg>