<?xml version="1.0" encoding="UTF-8" standalone="no"?>
<svg
   width="60"
   height="60"
   viewBox="0 0 60 60"
   fill="none"
   version="1.1"
   id="svg11"
   sodipodi:docname="abundant.svg"
   inkscape:version="1.1.1 (c3084ef, 2021-09-22)"
   xmlns:inkscape="http://www.inkscape.org/namespaces/inkscape"
   xmlns:sodipodi="http://sodipodi.sourceforge.net/DTD/sodipodi-0.dtd"
   xmlns="http://www.w3.org/2000/svg"
   xmlns:svg="http://www.w3.org/2000/svg">
  <defs
     id="defs15" />
  <sodipodi:namedview
     id="namedview13"
     pagecolor="#ffffff"
     bordercolor="#666666"
     borderopacity="1.0"
     inkscape:pageshadow="2"
     inkscape:pageopacity="0.0"
     inkscape:pagecheckerboard="0"
     showgrid="false"
     inkscape:zoom="11.983333"
     inkscape:cx="30"
     inkscape:cy="30.041725"
     inkscape:window-width="776"
     inkscape:window-height="480"
     inkscape:window-x="0"
     inkscape:window-y="38"
     inkscape:window-maximized="0"
     inkscape:current-layer="svg11" />
  <path
     d="M34 4C34 1.79086 32.2091 0 30 0C27.7909 0 26 1.79086 26 4V26H4C1.79086 26 0 27.7909 0 30C0 32.2091 1.79086 34 4 34H26V56C26 58.2091 27.7909 60 30 60C32.2091 60 34 58.2091 34 56V34H56C58.2091 34 60 32.2091 60 30C60 27.7909 58.2091 26 56 26H34V4Z"
     fill="white"
     id="path9"
     style="fill:#000000" />
</svg>
