<?xml version="1.0" encoding="UTF-8" standalone="no"?>
<svg
   width="60"
   height="60"
   viewBox="0 0 60 60"
   fill="none"
   version="1.1"
   id="svg177"
   sodipodi:docname="harshad.svg"
   inkscape:version="1.1.1 (c3084ef, 2021-09-22)"
   xmlns:inkscape="http://www.inkscape.org/namespaces/inkscape"
   xmlns:sodipodi="http://sodipodi.sourceforge.net/DTD/sodipodi-0.dtd"
   xmlns="http://www.w3.org/2000/svg"
   xmlns:svg="http://www.w3.org/2000/svg">
  <defs
     id="defs181" />
  <sodipodi:namedview
     id="namedview179"
     pagecolor="#ffffff"
     bordercolor="#666666"
     borderopacity="1.0"
     inkscape:pageshadow="2"
     inkscape:pageopacity="0.0"
     inkscape:pagecheckerboard="0"
     showgrid="false"
     inkscape:zoom="11.983333"
     inkscape:cx="30"
     inkscape:cy="31.043115"
     inkscape:window-width="766"
     inkscape:window-height="486"
     inkscape:window-x="0"
     inkscape:window-y="38"
     inkscape:window-maximized="0"
     inkscape:current-layer="svg177" />
  <path
     d="M16 8C16 12.4183 12.4183 16 8 16C3.58172 16 0 12.4183 0 8C0 3.58172 3.58172 0 8 0C12.4183 0 16 3.58172 16 8Z"
     fill="white"
     id="path171"
     style="fill:#000000" />
  <path
     d="M3.17157 57.8284C1.60948 56.2663 1.60948 53.7337 3.17157 52.1716L52.1715 3.1716C53.7336 1.60951 56.2663 1.6095 57.8284 3.1716C59.3905 4.7337 59.3905 7.26636 57.8284 8.82846L8.82843 57.8284C7.26633 59.3905 4.73367 59.3905 3.17157 57.8284Z"
     fill="white"
     id="path173"
     style="fill:#000000" />
  <path
     d="M52 60C56.4183 60 60 56.4183 60 52C60 47.5817 56.4183 44 52 44C47.5817 44 44 47.5817 44 52C44 56.4183 47.5817 60 52 60Z"
     fill="white"
     id="path175"
     style="fill:#000000" />
</svg>
