<?xml version="1.0" encoding="UTF-8" standalone="no"?>
<svg
   width="60"
   height="60"
   viewBox="0 0 60 60"
   fill="none"
   version="1.1"
   id="svg191"
   sodipodi:docname="lucky.svg"
   inkscape:version="1.1.1 (c3084ef, 2021-09-22)"
   xmlns:inkscape="http://www.inkscape.org/namespaces/inkscape"
   xmlns:sodipodi="http://sodipodi.sourceforge.net/DTD/sodipodi-0.dtd"
   xmlns="http://www.w3.org/2000/svg"
   xmlns:svg="http://www.w3.org/2000/svg">
  <defs
     id="defs195" />
  <sodipodi:namedview
     id="namedview193"
     pagecolor="#ffffff"
     bordercolor="#666666"
     borderopacity="1.0"
     inkscape:pageshadow="2"
     inkscape:pageopacity="0.0"
     inkscape:pagecheckerboard="0"
     showgrid="false"
     inkscape:zoom="11.983333"
     inkscape:cx="8.9707928"
     inkscape:cy="15.688456"
     inkscape:window-width="766"
     inkscape:window-height="486"
     inkscape:window-x="0"
     inkscape:window-y="38"
     inkscape:window-maximized="0"
     inkscape:current-layer="svg191" />
  <path
     d="m 31.3277,23.8256 c -0.756099,0.6694 -1.8993,0.6694 -2.655399,0 C 20.304401,16.4162 16,12.3836 16,7.48911 16,3.40414 19.332,0 23.532,0 c 1.7778,0 3.422201,0.466935 4.7952,1.3292 0.9941,0.62431 2.3519,0.62532 3.344,-0.00217 C 33.0324,0.466154 34.639601,0 36.3,0 40.5,0 44,3.24074 44,7.32571 44,12.3756 39.6956,16.4158 31.3277,23.8256 Z"
     fill="#ffffff"
     id="path183"
     style="stroke-width:1;fill:#000000" />
  <path
     d="M 23.8256,28.6723 C 16.415801,20.3044 12.3756,16 7.3257101,16 3.24074,16 0,19.5 0,23.7 c 0,1.6604 0.466154,3.2676 1.32703,4.6288 0.62749,0.9921 0.62648,2.3499 0.00217,3.344 C 0.466935,33.0458 0,34.6902 0,36.468 0,40.668 3.4041401,44 7.4891101,44 12.3836,44 16.4162,39.6956 23.8256,31.3277 c 0.6694,-0.7561 0.6694,-1.8993 0,-2.6554 z"
     fill="#ffffff"
     id="path185"
     style="stroke-width:1;fill:#000000" />
  <path
     d="M 52.666301,44 C 47.6105,44 43.5657,39.695 36.1704,31.326 c -0.6676,-0.7555 -0.6676,-1.8965 0,-2.652 C 43.5653,20.305 47.6025,16 52.5027,16 56.592101,16 60,19.332 60,23.532 c 0,1.7772 -0.467199,3.4212 -1.3299,4.794 -0.625099,0.9946 -0.6261,2.3538 0.0022,3.3464 C 59.533601,33.0333 60,34.64 60,36.3 60,40.5 56.755701,44 52.666301,44 Z"
     fill="#ffffff"
     id="path187"
     style="stroke-width:1;fill:#000000" />
  <path
     d="M 28.672301,36.1744 C 20.304401,43.5842 16,47.6244 16,52.6743 16,56.7593 19.5,60 23.7,60 c 1.6604,0 3.2676,-0.4662 4.628801,-1.327 0.9921,-0.6275 2.3499,-0.6265 3.343999,-0.0022 C 33.0458,59.5331 34.6902,60 36.468,60 40.668,60 44,56.5959 44,52.5109 44,47.6164 39.6956,43.5838 31.3277,36.1744 c -0.756099,-0.6694 -1.8993,-0.6694 -2.655399,0 z"
     fill="#ffffff"
     id="path189"
     style="stroke-width:1;fill:#000000" />
</svg>
