<?xml version="1.0" encoding="UTF-8" standalone="no"?>
<svg
   width="60"
   height="60"
   viewBox="0 0 60 60"
   fill="none"
   version="1.1"
   id="svg285"
   sodipodi:docname="taxicab.svg"
   inkscape:version="1.1.1 (c3084ef, 2021-09-22)"
   xmlns:inkscape="http://www.inkscape.org/namespaces/inkscape"
   xmlns:sodipodi="http://sodipodi.sourceforge.net/DTD/sodipodi-0.dtd"
   xmlns="http://www.w3.org/2000/svg"
   xmlns:svg="http://www.w3.org/2000/svg">
  <defs
     id="defs289" />
  <sodipodi:namedview
     id="namedview287"
     pagecolor="#ffffff"
     bordercolor="#666666"
     borderopacity="1.0"
     inkscape:pageshadow="2"
     inkscape:pageopacity="0.0"
     inkscape:pagecheckerboard="0"
     showgrid="false"
     inkscape:zoom="11.983333"
     inkscape:cx="30"
     inkscape:cy="31.043115"
     inkscape:window-width="766"
     inkscape:window-height="486"
     inkscape:window-x="0"
     inkscape:window-y="38"
     inkscape:window-maximized="0"
     inkscape:current-layer="svg285" />
  <rect
     y="45"
     width="15"
     height="15"
     rx="2"
     fill="#ffffff"
     id="rect269"
     x="0"
     style="stroke-width:1;fill:#000000" />
  <rect
     x="15"
     y="30"
     width="15"
     height="15"
     rx="2"
     fill="#ffffff"
     id="rect271"
     style="stroke-width:1;fill:#000000" />
  <rect
     x="30"
     y="15"
     width="15"
     height="15"
     rx="2"
     fill="#ffffff"
     id="rect273"
     style="stroke-width:1;fill:#000000" />
  <path
     d="M 45,2 C 45,0.89543 45.8954,0 47,0 H 58.000001 C 59.104601,0 60,0.895431 60,2 v 11 c 0,1.1046 -0.895399,2 -1.999999,2 H 47 c -1.1046,0 -2,-0.8954 -2,-2 z"
     fill="#ffffff"
     id="path275"
     style="stroke-width:1;fill:#000000" />
  <path
     d="m 45,32 c 0,-1.1046 0.8954,-2 2,-2 H 58.000001 C 59.104601,30 60,30.8954 60,32 v 11 c 0,1.1046 -0.895399,2 -1.999999,2 H 47 c -1.1046,0 -2,-0.8954 -2,-2 z"
     fill="#ffffff"
     id="path277"
     style="stroke-width:1;fill:#000000" />
  <path
     d="m 30,47 c 0,-1.1046 0.8954,-2 2,-2 H 43.000001 C 44.104601,45 45,45.8954 45,47 v 11 c 0,1.1046 -0.895399,2 -1.999999,2 H 32 c -1.1046,0 -2,-0.8954 -2,-2 z"
     fill="#ffffff"
     id="path279"
     style="stroke-width:1;fill:#000000" />
  <path
     d="m 0,17 c 0,-1.1046 0.89543101,-2 2,-2 h 11 c 1.1046,0 2,0.8954 2,2 v 11 c 0,1.1046 -0.8954,2 -2,2 H 2 C 0.89543001,30 0,29.1046 0,28 Z"
     fill="#ffffff"
     id="path281"
     style="stroke-width:1;fill:#000000" />
  <path
     d="M 15,2 C 15,0.89543 15.8954,0 17,0 H 28.000001 C 29.104601,0 30,0.895431 30,2 v 11 c 0,1.1046 -0.895399,2 -1.999999,2 H 17 c -1.1046,0 -2,-0.8954 -2,-2 z"
     fill="#ffffff"
     id="path283"
     style="stroke-width:1;fill:#000000" />
</svg>
